<?xml version="1.0" encoding="utf-8"?>
<!-- Generator: Adobe Illustrator 22.1.0, SVG Export Plug-In . SVG Version: 6.00 Build 0)  -->
<svg version="1.1" id="图层_1" xmlns="http://www.w3.org/2000/svg" xmlns:xlink="http://www.w3.org/1999/xlink" x="0px" y="0px"
	 viewBox="0 0 64 64" style="enable-background:new 0 0 64 64;" xml:space="preserve">
<style type="text/css">
	.st0{fill:#AAAAAA;}
</style>
<path class="st0" d="M22.1,0H7.6C3.3,0,0,3.3,0,7.2v14.5c0,4,3.3,7.2,7.2,7.2h14.5c4,0,7.2-3.3,7.2-7.2V7.2C29.3,3.3,26,0,22.1,0z
	 M24.9,21.3c0,2.2-1.8,3.6-3.6,3.6h-13c-2.2,0-3.6-1.8-3.6-3.6V8c0-2.2,1.8-3.6,3.6-3.6h13c2.2,0,3.6,1.8,3.6,3.6
	C24.9,8,24.9,21.3,24.9,21.3z M56.4,0H41.9c-4,0-7.2,3.3-7.2,7.2v14.5c0,4,3.3,7.2,7.2,7.2h14.5c4,0,7.2-3.3,7.2-7.2V7.2
	C64,3.3,60.4,0,56.4,0z M59.7,21.3c0,2.2-1.8,3.6-3.6,3.6H43c-2.2,0-3.6-1.8-3.6-3.6V8c0-2.2,1.8-3.6,3.6-3.6h13
	c2.2,0,3.6,1.8,3.6,3.6C59.7,8,59.7,21.3,59.7,21.3z M22.1,34.7H7.6c-4,0-7.2,3.3-7.2,7.2v14.5c0,4,3.3,7.2,7.2,7.2h14.5
	c4,0,7.2-3.3,7.2-7.2V41.9C29.3,38,26,34.7,22.1,34.7z M24.9,56c0,2.2-1.8,3.6-3.6,3.6h-13c-2.2,0-3.6-1.8-3.6-3.6V43
	c0-2.2,1.8-3.6,3.6-3.6h13c2.2,0,3.6,1.8,3.6,3.6C24.9,43,24.9,56,24.9,56z M56.4,34.7H41.9c-4,0-7.2,3.3-7.2,7.2v14.5
	c0,4,3.3,7.2,7.2,7.2h14.5c4,0,7.2-3.3,7.2-7.2V41.9C64,38,60.4,34.7,56.4,34.7z M59.7,56c0,2.2-1.8,3.6-3.6,3.6H43
	c-2.2,0-3.6-1.8-3.6-3.6V43c0-2.2,1.8-3.6,3.6-3.6h13c2.2,0,3.6,1.8,3.6,3.6V56z"/>
</svg>
