<?xml version="1.0" encoding="utf-8"?>
<!-- Generator: Adobe Illustrator 22.1.0, SVG Export Plug-In . SVG Version: 6.00 Build 0)  -->
<svg version="1.1" id="图层_1" xmlns="http://www.w3.org/2000/svg" xmlns:xlink="http://www.w3.org/1999/xlink" x="0px" y="0px"
	 viewBox="0 0 64 64" style="enable-background:new 0 0 64 64;" xml:space="preserve">
<style type="text/css">
	.st0{fill:#2487FF;}
</style>
<path class="st0" d="M58,29.9H10.6l19.3-19.3c0.7-0.7,0.7-1.9,0-2.7c-0.7-0.7-1.9-0.8-2.7,0L4.7,30.3c-0.1,0.1-0.2,0.2-0.3,0.4
	C4.1,31,4,31.4,4,31.8c0,0.5,0.2,1,0.5,1.3l22.6,22.6c0.7,0.7,1.9,0.7,2.7,0c0.7-0.7,0.8-1.9,0-2.7L10.5,33.7H58
	c1,0,1.9-0.9,1.9-1.9S59,29.9,58,29.9z"/>
</svg>
