<?xml version="1.0" standalone="no"?><!DOCTYPE svg PUBLIC "-//W3C//DTD SVG 1.1//EN" "http://www.w3.org/Graphics/SVG/1.1/DTD/svg11.dtd"><svg t="1535075630894" class="icon" style="" viewBox="0 0 1024 1024" version="1.1" xmlns="http://www.w3.org/2000/svg" p-id="6864" xmlns:xlink="http://www.w3.org/1999/xlink" width="64" height="64"><defs><style type="text/css"></style></defs><path d="M981.635 463.804H784.893c-22.338 0.07-40.406 18.219-40.375 40.557v12.678c-0.031 22.349 18.037 40.494 40.375 40.56h196.742c22.338-0.065 40.406-18.211 40.375-40.56V504.36c0.031-22.345-18.037-40.486-40.375-40.556zM525.123 115.7c-47.541 37.803-135.401 87.395-215.458 138.343-13.264 8.452-26.299 16.901-38.853 25.416-9.335 6.217-32.517 26.055-44.494 32.919-12.025 6.929-31.278 13.738-60.86 13.738H50.014C20.369 326.115 2 339.962 2 371.249v278.083c0 31.286 16.846 46.72 48.014 46.72h115.911c58.926 0.118 63.684 16.901 74.542 23.009 1.057 0.584 37.977 29.699 56.7 42.198 81.636 54.76 176.605 110.514 228.011 148.489 19.016 14.086 82.346 38.799 82.346-48.122v-701.55c-0.001-86.867-63.85-59.108-82.401-44.376z m181.709 191.69c10.447 18.432 31.168 23.064 46.254 10.33l161.756-136.34c15.141-12.735 18.896-37.977 8.451-56.465l-5.926-10.446c-10.447-18.425-31.168-23.063-46.254-10.33L709.357 240.425c-15.143 12.735-18.898 38.031-8.451 56.463l5.926 10.502z m46.254 396.994c-15.141-12.734-35.807-8.096-46.254 10.271l-5.926 10.447c-10.447 18.424-6.635 43.668 8.451 56.464l161.756 136.276c15.141 12.745 35.807 8.105 46.254-10.263l5.926-10.449c10.445-18.433 6.635-43.664-8.451-56.462L753.086 704.384z m0 0" fill="#46a9fd" p-id="6865"></path></svg>