<?xml version="1.0" standalone="no"?><!DOCTYPE svg PUBLIC "-//W3C//DTD SVG 1.1//EN" "http://www.w3.org/Graphics/SVG/1.1/DTD/svg11.dtd"><svg t="1535075254171" class="icon" style="" viewBox="0 0 1024 1024" version="1.1" xmlns="http://www.w3.org/2000/svg" p-id="4148" xmlns:xlink="http://www.w3.org/1999/xlink" width="64" height="64"><defs><style type="text/css"></style></defs><path d="M530.2 1019.7c-317.7 0-450.9-113.6-450.9-347.1 0-193.4 151.1-395.3 334.2-459h233.3C830 277.3 981 479.2 981 672.6c0.1 233.5-133.2 347.1-450.8 347.1zM655.1 636c21.1-0.2 38.1-17.3 38.1-38.4 0-21.1-17-38.2-38.1-38.4v-0.1h-77.3c0.1-0.9-0.1-1.6 0-2.5l90.6-92.7c14.8-16.7 7.3-30.4-7.7-45.5-15-15.2-39.6-18.4-51.8-5.1L531 496.4l-84.2-84.2c-10.7-10.6-31.4-7.2-46.3 7.7-14.9 14.9-18.4 35.7-7.7 46.3l86.1 86.1c-1.6 2.1-2.7 4.3-3.3 6.8h-70v0.1h-0.2c-21.2 0-38.4 17.2-38.4 38.4s17.2 38.4 38.4 38.4h0.2v0.1h76.7v38.2h-76.7v0.1h-0.2c-21.2 0-38.4 17.2-38.4 38.4s17.2 38.4 38.4 38.4h76.9v38.6h0.8c-0.6 3-0.9 6.1-0.9 9.3 0 26.5 21.5 48 48 48s48-21.5 48-48c0-3.2-0.3-6.3-0.9-9.3h0.4v-38.6h77.5c21.1-0.1 38.1-17.2 38.1-38.3s-17.1-38.2-38.1-38.4v-0.1h-77.5V636h77.4z m57.4-575.7l-8.1 10.1c-0.2 0.2-0.3 0.4-0.5 0.6l-68.2 85.3H405.5l-68.1-85.1c-0.5-0.5-0.8-1.1-1.3-1.6l-7.4-9.2 1.3-2.6c-0.6-2.4-1.5-4.7-1.5-7.2 0-12.2 7.7-22.5 18.4-26.7l0.9-1.8S442.1 3.2 520.5 2.9C602.6 2.4 693.3 22 693.3 22l0.9 1.8c10.7 4.2 18.3 14.5 18.3 26.7 0 2.5-0.8 4.7-1.4 7l1.4 2.8z" fill="#fd6c37" p-id="4149"></path></svg>