<?xml version="1.0" standalone="no"?><!DOCTYPE svg PUBLIC "-//W3C//DTD SVG 1.1//EN" "http://www.w3.org/Graphics/SVG/1.1/DTD/svg11.dtd"><svg t="1535599376417" class="icon" style="" viewBox="0 0 1024 1024" version="1.1" xmlns="http://www.w3.org/2000/svg" p-id="2962" xmlns:xlink="http://www.w3.org/1999/xlink" width="64" height="64"><defs><style type="text/css"></style></defs><path d="M714.076 108.268c-78.336 0-152.171 35.123-201.436 92.216-0.205-0.24-0.43-0.461-0.64-0.702-0.21 0.241-0.43 0.461-0.64 0.702-49.265-57.088-123.1-92.216-201.436-92.216-138.793 0-246.2 105.374-246.2 241.5 0 166.86 152.171 300.78 382.725 507.156l64.916 57.093 0.64-0.563 0.64 0.563 64.917-57.093c230.553-206.377 382.725-340.296 382.725-507.156-0.005-136.126-107.413-241.5-246.21-241.5zM541.67 820.152l-9.554 8.546-19.476 17.131-0.64-0.568-0.64 0.563-19.476-17.132-9.554-8.545C368.333 718.111 269.9 629.996 204.77 551.2c-63.202-76.544-91.403-145.024-91.403-209.03 0-50.41 21.965-92.779 56.55-126.699 34.448-33.797 75.971-53.084 127.043-55.301 79.81-3.461 129.28 29.271 161.92 58.071C491.13 246.697 512 272 512 272s20.87-25.303 53.12-53.76c32.64-28.8 82.11-61.532 161.92-58.071 51.072 2.217 92.595 21.499 127.043 55.306 34.585 33.92 56.55 76.293 56.55 126.7 0 64.005-28.201 132.48-91.402 209.029C754.099 630 655.667 718.116 541.67 820.152z" fill="#46a9fd" p-id="2963"></path></svg>