<?xml version="1.0" encoding="utf-8"?>
<!-- Generator: Adobe Illustrator 22.1.0, SVG Export Plug-In . SVG Version: 6.00 Build 0)  -->
<svg version="1.1" id="图层_1" xmlns="http://www.w3.org/2000/svg" xmlns:xlink="http://www.w3.org/1999/xlink" x="0px" y="0px"
	 viewBox="0 0 64 64" style="enable-background:new 0 0 64 64;" xml:space="preserve">
<style type="text/css">
	.st0{fill:#2DE3D1;}
</style>
<path class="st0" d="M55.9,11.7l-4.1-0.1c0,0-4.6-0.1-9.3-2c-4.5-1.8-7.5-3.9-8.1-4.3L32,3.6l-2.4,1.8c0,0,0,0,0,0
	C28.7,6,25.7,8,21.4,9.7c-4.6,1.9-9.2,2-9.3,2l-4,0.1H8.1v23.9c0,12.2,15.3,24.7,23.9,24.7c8.6,0,23.9-12.4,23.9-24.7L55.9,11.7z
	 M44.2,26.3L30.2,42.1L30.1,42L21,34.6l2.4-3l0.1,0.1l6.2,5.1l11.7-13.1L44.2,26.3L44.2,26.3z"/>
</svg>
