<?xml version="1.0" standalone="no"?><!DOCTYPE svg PUBLIC "-//W3C//DTD SVG 1.1//EN" "http://www.w3.org/Graphics/SVG/1.1/DTD/svg11.dtd"><svg t="1535533611440" class="icon" style="" viewBox="0 0 1024 1024" version="1.1" xmlns="http://www.w3.org/2000/svg" p-id="20857" xmlns:xlink="http://www.w3.org/1999/xlink" width="64" height="64"><defs><style type="text/css"></style></defs><path d="M423.744957 843.141886c32.630165 0 59.075467 26.446325 59.075467 59.075467s-26.445302 59.074444-59.075467 59.074443-59.074444-26.445302-59.074444-59.074443 26.445302-59.075467 59.074444-59.075467zM736.13578 843.141886c32.630165 0 59.074444 26.446325 59.074443 59.075467s-26.445302 59.074444-59.074443 59.074443-59.074444-26.445302-59.074444-59.074443 26.444279-59.075467 59.074444-59.075467zM807.025317 795.882536H376.485607c-43.672662 0-82.731236-33.813107-89.01229-77.009932l-87.042425-567.93187a23.074531 23.074531 0 0 1-0.053212-0.35611c-1.200338-8.401344-10.355859-16.343223-18.84009-16.343224h-83.426062c-19.575848 0-35.444257-15.869433-35.444256-35.444256s15.869433-35.444257 35.444256-35.444257h83.426062c43.664475 0 82.71384 33.812083 88.989776 77.010954l87.042426 567.930847 0.052188 0.352018c1.201361 8.403391 10.368138 16.347317 18.863627 16.347316h430.540733c19.575848 0 35.44528 15.869433 35.44528 35.44528 0 19.573801-15.869433 35.443233-35.446303 35.443234z" p-id="20858" fill="#46a9fd"></path><path d="M422.720627 653.849682c-18.61394 0-34.230616-14.517645-35.350112-33.343409-1.161453-19.541055 13.737886-36.3243 33.278941-37.485753l336.365864-19.684318 0.107447-0.00614c23.992437-1.353834 53.838186-22.971178 63.671135-45.805232l65.796542-244.150626a35.226293 35.226293 0 0 1 1.201361-3.654226c2.727111-6.993275 2.603291-12.090363 1.27197-14.039761-1.206478-1.763157-5.483898-3.543709-12.3247-3.54371H376.230804c-19.575848 0-35.44528-15.869433-35.445281-35.444256s15.869433-35.444257 35.445281-35.444257h500.507248c30.072923 0 55.898101 12.551874 70.853721 34.4363 14.769378 21.614274 17.282618 49.870828 6.994298 77.819367l-65.915246 244.587577a35.244712 35.244712 0 0 1-1.201361 3.65525c-9.282411 23.803125-27.262924 46.343491-50.630121 63.469544-23.456225 17.191544-50.332339 27.451212-75.683727 28.891003l-336.300372 19.680225c-0.714268 0.040932-1.427512 0.062422-2.134617 0.062422z" p-id="20859" fill="#46a9fd"></path></svg>