<?xml version="1.0" standalone="no"?><!DOCTYPE svg PUBLIC "-//W3C//DTD SVG 1.1//EN" "http://www.w3.org/Graphics/SVG/1.1/DTD/svg11.dtd"><svg t="1535094716869" class="icon" style="" viewBox="0 0 1024 1024" version="1.1" xmlns="http://www.w3.org/2000/svg" p-id="45302" xmlns:xlink="http://www.w3.org/1999/xlink" width="64" height="64"><defs><style type="text/css"></style></defs><path d="M479.085714 544.987429a46.592 46.592 0 0 0 65.828572 0l442.148571-442.221715a46.518857 46.518857 0 1 0-65.755428-65.828571L479.085714 479.158857a46.811429 46.811429 0 0 0 0 65.828572" p-id="45303" fill="#ffffff"></path><path d="M977.408 465.481143a46.518857 46.518857 0 0 0-46.518857 46.518857l0.365714 419.035429-838.217143 0.292571-0.292571-838.217143H512A46.592 46.592 0 0 0 512 0H92.745143A92.891429 92.891429 0 0 0 0 92.818286v838.509714C0 982.528 41.545143 1024 92.745143 1024h838.582857c51.2 0 92.672-41.472 92.745143-92.745143V512a46.592 46.592 0 0 0-46.665143-46.518857" p-id="45304" fill="#ffffff"></path></svg>