<?xml version="1.0" encoding="utf-8"?>
<!-- Generator: Adobe Illustrator 22.1.0, SVG Export Plug-In . SVG Version: 6.00 Build 0)  -->
<svg version="1.1" id="图层_1" xmlns="http://www.w3.org/2000/svg" xmlns:xlink="http://www.w3.org/1999/xlink" x="0px" y="0px"
	 viewBox="0 0 66 66" style="enable-background:new 0 0 66 66;" xml:space="preserve">
<style type="text/css">
	.st0{fill:#FFFFFF;}
</style>
<path class="st0" d="M3.9,22.1c1.6,0,2.9-1.3,2.9-2.9V13c0-3.5,2.8-6.3,6.3-6.3h7.4c1.6,0,2.9-1.3,2.9-2.9S22,1,20.4,1H13
	C6.4,1,1,6.4,1,13v6.3C1,20.9,2.3,22.1,3.9,22.1z M19.3,59.3H13c-3.5,0-6.3-2.8-6.3-6.3v-6.3c0-1.6-1.3-2.9-2.9-2.9S1,45.1,1,46.7
	V53c0,6.6,5.4,12,12,12h6.3c1.6,0,2.9-1.3,2.9-2.9S20.9,59.3,19.3,59.3z M62.1,43.9c-1.6,0-2.9,1.3-2.9,2.9V53
	c0,3.5-2.8,6.3-6.3,6.3h-6.3c-1.6,0.1-2.8,1.4-2.7,3c0.1,1.5,1.2,2.6,2.7,2.7H53c6.6,0,12-5.4,12-12v-6.3
	C65,45.1,63.7,43.9,62.1,43.9z M53,1h-6.3c-1.6,0-2.9,1.3-2.9,2.9s1.3,2.9,2.9,2.9H53c3.5,0,6.3,2.8,6.3,6.3v6.3
	c0,1.6,1.3,2.9,2.9,2.9s2.9-1.3,2.9-2.9V13C65,6.4,59.6,1,53,1z M62.1,30.1H3.9C2.3,30.1,1,31.4,1,33s1.3,2.9,2.9,2.9h58.3
	c1.6,0,2.9-1.3,2.9-2.9S63.7,30.1,62.1,30.1L62.1,30.1z"/>
</svg>
