<?xml version="1.0" encoding="utf-8"?>
<!-- Generator: Adobe Illustrator 22.1.0, SVG Export Plug-In . SVG Version: 6.00 Build 0)  -->
<svg version="1.1" id="图层_1" xmlns="http://www.w3.org/2000/svg" xmlns:xlink="http://www.w3.org/1999/xlink" x="0px" y="0px"
	 viewBox="0 0 64 64" style="enable-background:new 0 0 64 64;" xml:space="preserve">
<style type="text/css">
	.st0{fill:#FFFFFF;}
</style>
<path class="st0" d="M25.5,52.6c-1.5,1.5-3.9,1.5-5.4,0L1.6,34.1c-1.5-1.5-1.5-3.9,0-5.4c1.5-1.5,3.9-1.5,5.4,0l18.5,18.5
	C26.9,48.7,26.9,51.1,25.5,52.6z"/>
<path class="st0" d="M62.3,10.9c1.5,1.5,1.5,3.9,0,5.4L26,52.6c-1.5,1.5-3.9,1.5-5.4,0c-1.5-1.5-1.5-3.9,0-5.4L57,10.9
	C58.5,9.4,60.9,9.4,62.3,10.9z"/>
</svg>
