<?xml version="1.0" standalone="no"?><!DOCTYPE svg PUBLIC "-//W3C//DTD SVG 1.1//EN" "http://www.w3.org/Graphics/SVG/1.1/DTD/svg11.dtd"><svg t="1534930849317" class="icon" style="" viewBox="0 0 1024 1024" version="1.1" xmlns="http://www.w3.org/2000/svg" p-id="2464" xmlns:xlink="http://www.w3.org/1999/xlink" width="64" height="64"><defs><style type="text/css"></style></defs><path d="M665.329101 995.465256c-18.782363 0-36.842328-7.585185-48.400706-20.58836-15.892769-17.337566-66.46067-62.848677-107.63739-62.848677-41.17672 0-92.467019 45.511111-106.914991 61.765079-11.558377 12.641975-29.618342 20.22716-48.039506 20.227161-8.668783 0-16.976367-1.805996-24.561552-5.056791l-1.444797-0.722398-125.697355-70.072663-1.083598-0.722399c-22.755556-15.892769-31.424339-47.317108-20.22716-72.962257 0-0.361199 11.558377-26.728748 11.558377-50.929101 0-73.323457-59.597884-133.28254-133.282539-133.28254h-5.056791c-20.949559 0-38.287125-18.782363-43.705114-47.678306-0.361199-2.167196-10.835979-57.069489-10.835979-100.413404s10.11358-97.885009 10.835979-100.413404c5.417989-29.257143 23.116755-48.039506 44.427513-47.678307h4.334392c73.323457 0 133.28254-59.597884 133.282539-133.28254 0-24.200353-11.558377-50.567901-11.558377-50.9291-11.197178-25.64515-2.528395-56.708289 20.22716-72.601059l1.444798-0.722398L335.192945 33.952734l1.444798-0.722399c7.585185-3.250794 15.53157-4.695591 24.200352-4.695591 18.421164 0 36.481129 7.585185 48.039506 19.865961 15.53157 16.253968 65.377072 59.236684 105.470194 59.236685 39.731922 0 89.216226-41.899118 104.747796-58.153087 11.558377-12.280776 29.618342-19.504762 47.678307-19.504762 8.668783 0 17.337566 1.805996 24.922751 5.056791l1.444797 0.722398 127.86455 71.156261 1.083598 0.722399c22.755556 15.892769 31.785538 47.317108 20.227161 72.962257 0 0.361199-11.558377 26.728748-11.558378 50.929101 0 73.323457 59.597884 133.28254 133.28254 133.282539h4.334392c21.310758-0.361199 39.009524 18.421164 44.427513 47.678307 0.361199 2.167196 10.835979 57.069489 10.835979 100.413404s-10.11358 97.885009-10.835979 100.413404c-5.417989 29.257143-23.116755 48.039506-44.427513 47.678307H964.402116c-73.323457 0-133.28254 59.597884-133.282539 133.28254 0 24.200353 11.558377 50.567901 11.558377 50.9291 11.197178 25.64515 2.528395 56.708289-20.22716 72.601058l-1.444798 0.722399-130.031746 71.87866-1.444797 0.722398c-7.223986 2.528395-15.53157 4.334392-24.200352 4.334392z m-3.973193-61.40388c0.722399 0.361199 2.167196 1.083598 3.973193 1.083598h0.361199l121.724162-67.183069c-2.889594-6.862787-16.253968-40.093122-16.253968-74.407055 0-103.302998 81.269841-187.823633 183.128042-193.241622 1.444797-7.946384 9.391182-53.818695 9.391182-87.771429 0-34.313933-7.946384-79.825044-9.391182-87.771429-101.858201-5.417989-183.128042-89.938624-183.128042-193.241622 0-34.675132 13.364374-67.544268 16.253968-74.407055L667.496296 90.299824h-0.361199c-2.167196 0-3.973192 0.722399-4.695591 1.083598-2.167196 2.167196-19.504762 19.504762-44.427513 37.203527-36.842328 26.006349-71.87866 39.009524-103.664198 39.009524-32.146737 0-67.183069-13.364374-104.386596-39.731923-24.922751-17.698765-42.621517-35.75873-44.427513-37.925926-0.722399-0.361199-2.528395-1.083598-4.695591-1.083598h-0.361199L236.585538 156.760494C239.475132 163.62328 252.839506 196.853616 252.839506 231.167549c0 103.302998-81.269841 187.823633-183.128042 193.241622-1.444797 7.946384-9.391182 53.818695-9.391182 87.771429 0 34.313933 7.946384 79.825044 9.391182 87.771428C171.569665 605.370018 252.839506 689.890653 252.839506 793.193651c0 34.675132-13.364374 67.905467-16.253968 74.407054L353.975309 933.338977h0.361199c1.805996 0 3.250794-0.722399 3.973192-1.083598 2.167196-2.528395 19.865961-20.949559 44.788713-39.370723 37.564727-27.451146 73.323457-41.537919 106.192592-41.537919 33.230335 0 69.350265 14.086772 106.914991 42.260318 25.64515 19.143563 42.982716 37.925926 45.149912 40.454321z m-151.703703-245.254321c-97.885009 0-177.348854-79.463845-177.348854-177.348854s79.463845-177.348854 177.348854-177.348854 177.348854 79.463845 177.348853 177.348854-79.463845 177.348854-177.348853 177.348854z m0-294.016226c-64.654674 0-117.028571 52.373898-117.028572 117.028571s52.373898 117.028571 117.028572 117.028572 117.028571-52.373898 117.028571-117.028572-52.373898-117.028571-117.028571-117.028571z m0 0" p-id="2465" fill="#ffffff"></path></svg>