<?xml version="1.0" encoding="utf-8"?>
<!-- Generator: Adobe Illustrator 22.1.0, SVG Export Plug-In . SVG Version: 6.00 Build 0)  -->
<svg version="1.1" id="图层_1" xmlns="http://www.w3.org/2000/svg" xmlns:xlink="http://www.w3.org/1999/xlink" x="0px" y="0px"
	 viewBox="0 0 64 64" style="enable-background:new 0 0 64 64;" xml:space="preserve">
<style type="text/css">
	.st0{fill:#FFBA00;}
</style>
<path class="st0" d="M48.3,62.8c-0.9,0-1.9-0.3-2.8-0.7l-13.4-6.7l-13.5,6.7c-0.9,0.5-1.8,0.7-2.8,0.7c-1.3,0-2.6-0.4-3.6-1.2
	c-1.9-1.4-2.9-3.9-2.4-6.1l2.8-14.3L2,31.4c-1.6-1.7-2.3-4.1-1.6-6.3V25c0.8-2.3,2.7-3.9,5-4.2L20,18.1l6.6-13.4
	c1.1-2.1,3.2-3.5,5.5-3.5c2.4,0,4.6,1.4,5.5,3.5L44.2,18l14.7,2.6c2.3,0.3,4.2,2,4.9,4.3c0.7,2.2,0.1,4.7-1.5,6.3l0,0l-10.5,9.9
	l2.7,14.3c0.4,2.3-0.5,4.6-2.4,6C50.9,62.4,49.6,62.8,48.3,62.8z M48.7,57.3"/>
</svg>
