<?xml version="1.0" standalone="no"?><!DOCTYPE svg PUBLIC "-//W3C//DTD SVG 1.1//EN" "http://www.w3.org/Graphics/SVG/1.1/DTD/svg11.dtd"><svg t="1535075214905" class="icon" style="" viewBox="0 0 1024 1024" version="1.1" xmlns="http://www.w3.org/2000/svg" p-id="3237" xmlns:xlink="http://www.w3.org/1999/xlink" width="64" height="64"><defs><style type="text/css"></style></defs><path d="M955.733333 136.533333H68.266667c-37.546667 0-68.266667 30.72-68.266667 68.266667v614.4c0 37.546667 30.72 68.266667 68.266667 68.266667h887.466666c37.546667 0 68.266667-30.72 68.266667-68.266667V204.8c0-37.546667-30.72-68.266667-68.266667-68.266667z m-83.2512 454.178134l-45.5168 136.533333a34.0992 34.0992 0 0 1-32.375466 23.330133H593.493333a34.133333 34.133333 0 0 1-32.375466-44.919466l45.5168-136.533334a34.133333 34.133333 0 0 1 32.375466-23.3472h201.1136a34.133333 34.133333 0 0 1 32.3584 44.936534zM853.162667 341.333333h-682.666667c-18.773333 0-34.133333-15.36-34.133333-34.133333s15.36-34.133333 34.133333-34.133333h682.666667c18.773333 0 34.133333 15.36 34.133333 34.133333s-15.36 34.133333-34.133333 34.133333z" fill="#ffa93d" p-id="3238"></path></svg>