<?xml version="1.0" standalone="no"?><!DOCTYPE svg PUBLIC "-//W3C//DTD SVG 1.1//EN" "http://www.w3.org/Graphics/SVG/1.1/DTD/svg11.dtd"><svg t="1535075715114" class="icon" style="" viewBox="0 0 1151 1024" version="1.1" xmlns="http://www.w3.org/2000/svg" p-id="10129" xmlns:xlink="http://www.w3.org/1999/xlink" width="71.9375" height="64"><defs><style type="text/css"></style></defs><path d="M1007.222388 646.355886c-65.567678 0-121.71161-39.854863-144.673153-96.024507a154.662582 154.662582 0 0 1-286.235057 0c-22.935831 56.22107-79.144044 96.024508-144.64744 96.024507a154.27689 154.27689 0 0 1-143.117528-96.024507c-22.948687 56.22107-79.131188 96.024508-144.647441 96.024507a154.945423 154.945423 0 0 1-44.393175-6.518198v263.556353c0 66.339063 54.266896 120.605959 120.605959 120.605959h710.959334c66.339063 0 120.605959-54.266896 120.605958-120.605959v-263.427789a158.133812 158.133812 0 0 1-44.393175 6.428204z" fill="#30bca0" p-id="10130"></path><path d="M1049.147133 142.487564H98.660071L0 400.669939c0 77.279865 64.140617 141.420482 143.066103 141.420483s144.711723-62.48214 144.711722-141.420483c0 77.279865 64.127761 141.420482 143.066103 141.420483s144.711723-62.48214 144.711722-141.420483c0 77.279865 64.140617 141.420482 143.066103 141.420483s143.066103-62.48214 143.066102-141.420483c0 77.279865 64.127761 141.420482 144.711723 141.420483 78.938342 0 144.711723-62.48214 144.711723-141.420483L1049.082851 142.487564z" fill="#30bca0" p-id="10131"></path><path d="M164.446308 98.660071h822.205828c27.962686 0 49.330036-21.380206 49.330036-49.330035S1014.614823 0 986.652136 0H164.446308c-27.962686 0-49.330036 21.380206-49.330035 49.330036s21.367349 49.330036 49.330035 49.330035z" fill="#30bca0" p-id="10132"></path></svg>