<?xml version="1.0" standalone="no"?><!DOCTYPE svg PUBLIC "-//W3C//DTD SVG 1.1//EN" "http://www.w3.org/Graphics/SVG/1.1/DTD/svg11.dtd"><svg t="1535075930177" class="icon" style="" viewBox="0 0 1056 1024" version="1.1" xmlns="http://www.w3.org/2000/svg" p-id="12183" xmlns:xlink="http://www.w3.org/1999/xlink" width="66" height="64"><defs><style type="text/css"></style></defs><path d="M513.666 457.914c-18.873 0-36.944-3.782-50.889-10.652l-278.324-136.972c-19.058-9.369-30.051-24.415-30.16-41.27-0.108-17.043 10.951-32.461 30.331-42.305l281.255-142.816c14.803-7.516 33.921-11.658 53.834-11.658 18.873 0 36.947 3.782 50.896 10.652l278.334 136.976c19.052 9.374 30.042 24.415 30.15 41.267 0.108 17.043-10.941 32.461-30.323 42.305l-281.27 142.816c-14.797 7.516-33.921 11.658-53.834 11.658v0.001zM827.714 261.962c0.241-0.123 0.474-0.241 0.693-0.362l-0.693 0.362z" fill="#30bca0" p-id="12184"></path><path d="M455.868 960.654c-9.615 0-19.677-2.537-29.907-7.521l-0.599-0.307-248.691-130.492c-29.766-14.698-52.18-46.197-52.18-73.411v-351.726c0-24.652 18.095-42.541 43.014-42.541 9.615 0 19.677 2.537 29.907 7.533l0.604 0.304 248.688 130.492c29.771 14.694 52.193 46.197 52.193 73.411v351.726c-0.003 24.646-18.095 42.537-43.025 42.537l-0.001 0.001z" fill="#30bca0" p-id="12185"></path><path d="M589.603 960.654c-0.003 0-0.003 0 0 0-24.932 0-43.025-17.89-43.025-42.537v-351.726c0-27.219 22.409-58.72 52.18-73.411l249.294-130.798c10.228-4.994 20.29-7.533 29.907-7.533 24.919 0 43.014 17.892 43.014 42.541v351.726c0 27.219-22.409 58.715-52.188 73.411l-249.291 130.798c-10.226 4.991-20.286 7.525-29.898 7.525h-0.001z" fill="#30bca0" p-id="12186"></path></svg>