<?xml version="1.0" encoding="utf-8"?>
<!-- Generator: Adobe Illustrator 22.1.0, SVG Export Plug-In . SVG Version: 6.00 Build 0)  -->
<svg version="1.1" id="图层_1" xmlns="http://www.w3.org/2000/svg" xmlns:xlink="http://www.w3.org/1999/xlink" x="0px" y="0px"
	 viewBox="0 0 64 64" style="enable-background:new 0 0 64 64;" xml:space="preserve">
<style type="text/css">
	.st0{fill:#46A9FD;}
</style>
<path class="st0" d="M32,10.4c7.3,0,14.5,0,21.8,0c2.6,0,4.8,0.8,5.9,3.3c0.5,1.1,0.4,1.9-0.8,2.7c-8.6,5.4-17.1,10.8-25.7,16.3
	c-0.9,0.6-1.5,0.6-2.5,0c-8.6-5.5-17.3-11-25.9-16.5c-0.8-0.5-1-1-0.8-1.9c0.6-2,1.9-3.3,4-3.7c0.9-0.2,1.7-0.2,2.6-0.2
	C17.8,10.4,24.9,10.4,32,10.4z"/>
<path class="st0" d="M31.9,53.5c-7.4,0-14.7,0-22.1,0c-3,0-5-1.4-5.7-3.8c-0.3-0.9-0.1-1.4,0.7-1.9c6.8-4.2,13.5-8.5,20.3-12.7
	c0.5-0.3,1.3-0.3,1.8,0c1.4,0.7,2.8,1.6,4.1,2.5c0.7,0.5,1.3,0.5,2.1,0c1.3-0.9,2.7-1.7,4-2.6c0.8-0.5,1.3-0.4,2,0
	c6.6,4.2,13.3,8.5,19.9,12.6c1,0.6,1.1,1.3,0.8,2.3C59,52.1,57,53.4,54,53.4C46.7,53.5,39.3,53.5,31.9,53.5z"/>
<path class="st0" d="M4,20.4c6.1,3.9,12,7.7,18.2,11.6c-6.1,3.9-12,7.7-18.2,11.6C4,35.8,4,28.2,4,20.4z"/>
<path class="st0" d="M60,20.4c0,7.8,0,15.3,0,23.1c-6.1-3.9-12.1-7.7-18.1-11.5C47.9,28.1,53.9,24.3,60,20.4z"/>
</svg>
