<?xml version="1.0" encoding="utf-8"?>
<!-- Generator: Adobe Illustrator 22.1.0, SVG Export Plug-In . SVG Version: 6.00 Build 0)  -->
<svg version="1.1" id="图层_1" xmlns="http://www.w3.org/2000/svg" xmlns:xlink="http://www.w3.org/1999/xlink" x="0px" y="0px"
	 viewBox="0 0 64 64" style="enable-background:new 0 0 64 64;" xml:space="preserve">
<style type="text/css">
	.st0{fill:url(#SVGID_1_);}
</style>
<linearGradient id="SVGID_1_" gradientUnits="userSpaceOnUse" x1="1.569939e-02" y1="32" x2="64.0157" y2="32">
	<stop  offset="0" style="stop-color:#D6D9DC"/>
	<stop  offset="1" style="stop-color:#D2D5D6"/>
</linearGradient>
<path class="st0" d="M34.9,41.1v23.1h22.9c1.8,0,3.3-1.4,3.3-3.1v-20H34.9z M2.8,41.1v20c0,1.7,1.5,3.1,3.3,3.1h23.1V41.1
	C29.2,41.1,2.8,41.1,2.8,41.1z M60.7,18.8H44.8c2.5-1.3,4.5-2.7,5.5-3.6c3.8-3.5,3.8-9.3,0-12.8C46.6-1,40.1-1,36.4,2.4
	c-0.5,0.5-2.6,2.9-4.4,5.8c-1.9-3-3.9-5.4-4.4-5.8C23.8-1,17.4-1,13.6,2.4c-3.8,3.5-3.8,9.3,0,12.8c0.9,0.9,3,2.3,5.5,3.6H3.3
	c-1.8,0-3.3,1.4-3.3,3.1v10.5c0,1.5,1.2,2.7,2.7,3h26.4V18.8h5.7v16.5h26.3v0c1.6-0.2,2.9-1.4,2.9-3V21.9
	C64,20.2,62.5,18.8,60.7,18.8z M18.3,10.9c-1.3-1.1-1.3-3,0-4.1c0.6-0.5,1.4-0.8,2.2-0.8c0.8,0,1.7,0.3,2.2,0.8
	c1.9,1.8,5,6.8,5.7,9.3C25.5,15.4,20.1,12.5,18.3,10.9L18.3,10.9z M41.1,6.7c0.6-0.5,1.4-0.8,2.3-0.8c0.9,0,1.7,0.3,2.3,0.8
	c1.2,1.1,1.2,3,0,4.1c-1.8,1.6-7.2,4.5-10.2,5.2C36.1,13.5,39.2,8.5,41.1,6.7z"/>
</svg>
