<?xml version="1.0" encoding="utf-8"?>
<!-- Generator: Adobe Illustrator 22.1.0, SVG Export Plug-In . SVG Version: 6.00 Build 0)  -->
<svg version="1.1" id="图层_1" xmlns="http://www.w3.org/2000/svg" xmlns:xlink="http://www.w3.org/1999/xlink" x="0px" y="0px"
	 viewBox="0 0 64 64" style="enable-background:new 0 0 64 64;" xml:space="preserve">
<style type="text/css">
	.st0{fill:url(#SVGID_1_);}
</style>
<linearGradient id="SVGID_1_" gradientUnits="userSpaceOnUse" x1="2.3697" y1="19.0659" x2="64.0988" y2="54.7052">
	<stop  offset="0" style="stop-color:#7E67FF"/>
	<stop  offset="0.4" style="stop-color:#5887FB"/>
	<stop  offset="1" style="stop-color:#49A7FF"/>
</linearGradient>
<path class="st0" d="M61.4,57.3c0,0.9-0.1,1.8-0.4,2.5c-0.3,0.8-0.7,1.5-1.2,2.1c-0.5,0.6-1.1,1.1-1.8,1.4c-0.7,0.3-1.5,0.5-2.3,0.5
	H8.3c-0.8,0-1.6-0.2-2.4-0.5c-0.7-0.3-1.4-0.8-2-1.4s-1-1.3-1.3-2.1c-0.3-0.8-0.5-1.6-0.5-2.5V21.4c0-1.8,0.6-3.4,1.7-4.6
	c1.2-1.3,2.6-1.9,4.2-1.9h47.4c1.7,0,3.1,0.6,4.2,1.9c1.2,1.3,1.7,2.8,1.7,4.6v9.8H46.6c-1.7,0-3.1,0.6-4.2,1.9
	c-1.2,1.2-1.7,2.8-1.7,4.6c0,1.2,0.3,2.4,0.7,3.3c0.3,0.8,0.9,1.6,1.7,2.2c0.8,0.7,2,1,3.5,1h14.8L61.4,57.3L61.4,57.3L61.4,57.3z
	 M51.8,11.6h-32c2.5-1.3,4.9-2.6,7.2-3.9c2-1,3.9-2.1,5.8-3.2c1.9-1.1,3.4-1.9,4.5-2.4c1.6-0.9,3.1-1.3,4.4-1.3
	c1.3,0.1,2.4,0.3,3.3,0.7c1,0.5,1.9,1.2,2.7,2.1L51.8,11.6L51.8,11.6z M42.3,37.7c0-0.9,0.3-1.7,0.9-2.3c0.6-0.6,1.4-0.9,2.3-0.9
	s1.6,0.3,2.3,0.9c0.6,0.6,0.9,1.4,0.9,2.3c0,0.9-0.3,1.7-0.9,2.3c-0.6,0.6-1.4,1-2.3,1s-1.6-0.3-2.3-1
	C42.6,39.3,42.3,38.6,42.3,37.7z"/>
</svg>
