<?xml version="1.0" standalone="no"?><!DOCTYPE svg PUBLIC "-//W3C//DTD SVG 1.1//EN" "http://www.w3.org/Graphics/SVG/1.1/DTD/svg11.dtd"><svg t="1534905522067" class="icon" style="" viewBox="0 0 1024 1024" version="1.1" xmlns="http://www.w3.org/2000/svg" p-id="1935" xmlns:xlink="http://www.w3.org/1999/xlink" width="64" height="64"><defs><style type="text/css"></style></defs><path d="M512 63.936c247.04 0 448 171.104 448 381.376s-200.96 388.416-448 388.416a516.64 516.64 0 0 1-64.96-4.224 136.192 136.192 0 0 0-17.28-1.088 128.8 128.8 0 0 0-66.24 18.24L256 935.392v-112.864a124.48 124.48 0 0 0-48.64-98.144A354.208 354.208 0 0 1 64 445.184C64 234.912 264.96 63.808 512 63.808m0-63.584C229.12 0.224 0 199.456 0 445.184a419.616 419.616 0 0 0 167.68 328.928A61.824 61.824 0 0 1 192 822.528v169.312a32 32 0 0 0 32 32 33.12 33.12 0 0 0 16.64-4.64l156.16-118.176a63.36 63.36 0 0 1 32.96-8.992 66.72 66.72 0 0 1 8.96 0.544 581.184 581.184 0 0 0 73.28 4.768c282.56 0 512-206.24 512-452S794.56 0.544 512 0.544z m224 416.768H288a32 32 0 0 1 0-64h448a32 32 0 0 1 0 64z m-384 128h320a32 32 0 1 1 0 64H352a32 32 0 1 1 0-64z" p-id="1936" fill="#ffffff"></path></svg>