<?xml version="1.0" encoding="utf-8"?>
<!-- Generator: Adobe Illustrator 22.1.0, SVG Export Plug-In . SVG Version: 6.00 Build 0)  -->
<svg version="1.1" id="图层_1" xmlns="http://www.w3.org/2000/svg" xmlns:xlink="http://www.w3.org/1999/xlink" x="0px" y="0px"
	 viewBox="0 0 128 128" style="enable-background:new 0 0 128 128;" xml:space="preserve">
<style type="text/css">
	.st0{fill:#46A9FD;}
</style>
<g>
	<path class="st0" d="M79,100.6H49.1v10.8H20.6v8.1h86.8v-8.1H79V100.6z"/>
	<path class="st0" d="M118.2,8.4H9.8c-4.5,0-8.1,3.6-8.1,8.1v75.9c0,6.7,6.5,8.1,11.8,8.1h100.4c8.8,0,12.4-3.6,12.4-8.1V16.5
		C126.3,12.1,122.7,8.4,118.2,8.4z M33.3,81H24V64.6h9.3V81z M52.3,80.7h-9.9V51.2h9.9C52.3,51.2,52.3,80.7,52.3,80.7z M74.9,81.2
		H64.6V25.4h10.3V81.2L74.9,81.2z M98.3,80.9H88.1V38.2h10.2L98.3,80.9z"/>
</g>
</svg>
