<?xml version="1.0" encoding="utf-8"?>
<!-- Generator: Adobe Illustrator 22.1.0, SVG Export Plug-In . SVG Version: 6.00 Build 0)  -->
<svg version="1.1" id="图层_1" xmlns="http://www.w3.org/2000/svg" xmlns:xlink="http://www.w3.org/1999/xlink" x="0px" y="0px"
	 viewBox="0 0 64 64" style="enable-background:new 0 0 64 64;" xml:space="preserve">
<style type="text/css">
	.st0{fill:url(#SVGID_1_);}
</style>
<linearGradient id="SVGID_1_" gradientUnits="userSpaceOnUse" x1="2.4" y1="32" x2="61.8286" y2="32">
	<stop  offset="0" style="stop-color:#27A6FA"/>
	<stop  offset="1" style="stop-color:#8E71F5"/>
</linearGradient>
<path class="st0" d="M57.3,4.6H45.8c0-2.5-2-4.6-4.6-4.6H23c-2.5,0-4.6,2-4.6,4.6H7c-2.5,0-4.6,2-4.6,4.6v50.3C2.4,62,4.4,64,7,64
	h50.3c2.5,0,4.6-2,4.6-4.6V9.1C61.8,6.6,59.8,4.6,57.3,4.6z M25.3,4.6H39c1.3,0,2.3,1,2.3,2.3c0,1.3-1,2.3-2.3,2.3H25.3
	c-1.3,0-2.3-1-2.3-2.3C23,5.6,24,4.6,25.3,4.6z M57.3,57.1c0,1.3-1,2.3-2.3,2.3H9.3c-1.3,0-2.3-1-2.3-2.3V11.4c0-1.3,1-2.3,2.3-2.3
	h9.1c0,2.5,2,4.6,4.6,4.6h18.3c2.5,0,4.6-2,4.6-4.6H55c1.3,0,2.3,1,2.3,2.3V57.1z M44.1,25.8L27.4,42.5l-7.6-7.6
	c-0.9-0.9-2.2-0.9-3.1,0h0c-0.9,0.9-0.9,2.2,0,3.1l8.8,8.8c0.1,0.2,0.2,0.3,0.4,0.5c0.5,0.5,1.1,0.7,1.7,0.7c0.5,0,1-0.2,1.5-0.5
	c0.1-0.1,0.1-0.1,0.2-0.2l18.2-18.2c0.9-0.9,0.9-2.4,0-3.3C46.5,24.9,45,24.9,44.1,25.8z"/>
</svg>
