<?xml version="1.0" encoding="utf-8"?>
<!-- Generator: Adobe Illustrator 22.1.0, SVG Export Plug-In . SVG Version: 6.00 Build 0)  -->
<svg version="1.1" id="图层_1" xmlns="http://www.w3.org/2000/svg" xmlns:xlink="http://www.w3.org/1999/xlink" x="0px" y="0px"
	 viewBox="0 0 64 64" style="enable-background:new 0 0 64 64;" xml:space="preserve">
<style type="text/css">
	.st0{fill:url(#SVGID_1_);}
	.st1{fill:url(#SVGID_2_);}
	.st2{fill:url(#SVGID_3_);}
</style>
<linearGradient id="SVGID_1_" gradientUnits="userSpaceOnUse" x1="9.307" y1="51.6076" x2="47.7989" y2="51.6076">
	<stop  offset="0" style="stop-color:#27A6FA"/>
	<stop  offset="1" style="stop-color:#8E71F5"/>
</linearGradient>
<path class="st0" d="M9.3,51.5c0,0.6,0.2,1,0.6,1.5c0.4,0.4,0.9,0.6,1.4,0.6h34.5c0.5,0,1-0.2,1.4-0.6s0.6-0.9,0.6-1.4
	c0-0.6-0.2-1-0.6-1.4c-0.4-0.4-0.9-0.6-1.4-0.6H11.3c-0.5,0-1,0.2-1.4,0.6C9.5,50.5,9.3,51,9.3,51.5z"/>
<linearGradient id="SVGID_2_" gradientUnits="userSpaceOnUse" x1="1.5512" y1="32.0313" x2="55.5548" y2="32.0313">
	<stop  offset="0" style="stop-color:#27A6FA"/>
	<stop  offset="1" style="stop-color:#8E71F5"/>
</linearGradient>
<path class="st1" d="M54.9,40.5c-0.4-0.4-0.9-0.6-1.4-0.6s-1,0.2-1.4,0.6c-0.4,0.4-0.6,0.9-0.6,1.4v16c0,0.5-0.2,1-0.6,1.4
	C50.5,59.8,50,60,49.5,60H7.6c-0.6,0-1.1-0.2-1.4-0.6C5.8,59,5.6,58.5,5.6,58V6c0-0.5,0.2-1,0.6-1.4C6.5,4.2,7,4.1,7.6,4.1h28.4
	c0.6,0,1.1-0.2,1.4-0.6C37.8,3.1,38,2.6,38,2c0-0.6-0.2-1-0.6-1.4C37,0.2,36.5,0,35.9,0H7.6C5.9,0,4.5,0.6,3.3,1.8S1.6,4.4,1.6,6V58
	c0,1.7,0.6,3.1,1.8,4.3C4.5,63.4,5.9,64,7.6,64h41.9c1.7,0,3.1-0.6,4.3-1.8c1.2-1.2,1.8-2.6,1.8-4.3v-16
	C55.6,41.4,55.4,40.9,54.9,40.5z"/>
<linearGradient id="SVGID_3_" gradientUnits="userSpaceOnUse" x1="21.9068" y1="23.27" x2="62.4488" y2="23.27">
	<stop  offset="0" style="stop-color:#27A6FA"/>
	<stop  offset="1" style="stop-color:#8E71F5"/>
</linearGradient>
<path class="st2" d="M60.7,11.2l-6.5-6.5C53,3.6,51.6,3,49.9,3s-3.1,0.6-4.3,1.7L26.4,24c-1,0.9-1.8,2.2-2.5,3.7
	c-0.7,1.6-1.1,3-1.2,4.4l-0.5,5.2c-0.2,2.5-0.3,4-0.3,4.5c0,0.5,0.2,0.9,0.5,1.2c0.4,0.4,0.9,0.6,1.4,0.6c0.3,0,1.7-0.1,4.2-0.3
	l5.2-0.4c1.3-0.1,2.7-0.6,4.3-1.3c1.6-0.7,2.8-1.6,3.7-2.5l19.3-19.2c1.1-1.1,1.7-2.6,1.7-4.2S61.9,12.4,60.7,11.2z M57.9,17
	L38.6,36.2c-0.6,0.6-1.5,1.1-2.6,1.7c-1.1,0.5-2.1,0.8-3,0.9l-5.2,0.4c-0.6,0.1-1.1,0.1-1.7,0.1c0.1-0.1,0.1-0.7,0.1-1.7l0.4-5.2
	c0.1-0.9,0.4-1.9,0.9-3c0.5-1.1,1.1-2,1.7-2.6L48.5,7.5C48.9,7.2,49.4,7,49.9,7c0.6,0,1.1,0.2,1.4,0.6l6.5,6.5
	c0.4,0.4,0.6,0.8,0.6,1.4C58.4,16,58.2,16.5,57.9,17z"/>
</svg>
