<?xml version="1.0" standalone="no"?><!DOCTYPE svg PUBLIC "-//W3C//DTD SVG 1.1//EN" "http://www.w3.org/Graphics/SVG/1.1/DTD/svg11.dtd"><svg t="1535535858606" class="icon" style="" viewBox="0 0 1024 1024" version="1.1" xmlns="http://www.w3.org/2000/svg" p-id="22676" xmlns:xlink="http://www.w3.org/1999/xlink" width="64" height="64"><defs><style type="text/css"></style></defs><path d="M234.929303 324.365695h554.641341v426.754865c0 46.695061-24.897367 71.29246-71.792407 71.39245h-34.196384c0 49.494765 0.499947 97.489689-0.199979 145.484613-0.499947 29.796849-26.197229 54.494237-55.694109 55.59412-31.696648 1.199873-60.593592-20.7978-61.793465-51.194585-1.79981-49.194797-0.499947-98.489584-0.499947-148.784265H459.205584v58.693793c-0.099989 28.796954 0.599937 57.693898-0.499947 86.490852-0.999894 28.197018-23.197547 51.194586-50.49466 54.694216-28.996933 3.699609-56.094067-13.098615-64.693158-40.595707-1.899799-6.099355-2.999683-12.598668-3.099672-18.997991-0.299968-40.995664-0.199979-81.891339-0.09999-122.887003 0-5.599408 0.999894-11.198816 1.599831-18.398054-13.798541 0-27.297113 0.099989-40.795685 0-39.99577-0.299968-66.09301-26.197229-66.09301-66.392978-0.099989-140.285163 0-280.570326 0-420.955479v-10.898847z m554.941309-40.995665H234.429356c5.19945-95.989848 59.693687-155.683535 140.785111-198.079051-8.299122-12.498678-16.298276-24.697388-24.297431-36.896097-5.899376-8.799069-11.798752-17.598139-17.598138-26.497198-4.099566-6.299334-10.698868-13.298594-1.599831-19.497938 9.898953-6.699291 13.89853 2.699714 18.198075 9.099038 10.3989 15.398371 20.697811 30.796743 30.996722 46.295104 12.698657 18.997991 12.698657 18.997991 34.496352 12.698657 69.392661-20.197864 138.285375-19.09798 206.678141 4.499524 2.499736 0.799915 4.999471 1.499841 8.199133 2.499735 14.198498-21.197758 28.197018-42.295527 42.295526-63.393295 1.69982-2.499736 3.299651-5.099461 5.099461-7.599196 3.999577-5.699397 8.999048-8.69908 15.298382-3.999577 5.699397 4.199556 4.799492 9.598985 1.099884 14.998413-12.19871 18.298065-24.39742 36.59613-36.49614 54.894195-2.699714 4.099566-5.399429 8.199133-8.499101 12.898635 80.691466 41.995558 135.68565 101.789235 140.78511 198.079051z m-129.086348-107.988579c0.199979-16.098297-13.298594-29.696859-29.396891-29.896838-16.298276-0.199979-29.59687 12.898636-29.696859 29.396891-0.099989 16.598245 12.598668 29.49688 29.196912 29.59687 16.398266 0.099989 29.696859-12.798646 29.896838-29.096923z m-238.17481-0.699926c-0.199979-16.398266-13.598562-29.49688-29.796849-29.196912-16.098297 0.299968-29.59687 14.098509-29.296901 30.096817 0.299968 16.298276 13.698551 29.096923 30.096817 28.996933 16.598245-0.199979 29.296902-13.198604 28.996933-29.896838zM947.953893 510.346025c0 41.295633 0.099989 82.591265 0 123.886897-0.099989 36.296161-25.097346 62.59338-59.19374 62.59338s-59.293729-26.397208-59.293729-62.59338c-0.099989-83.691149-0.199979-167.382297 0.09999-251.173435 0.099989-30.796743 22.697599-55.59412 52.494448-58.693792 30.996722-3.199662 58.193845 15.998308 64.793147 46.295103 1.299863 5.799387 1.299863 11.998731 1.299863 18.098086-0.199979 40.495717-0.199979 80.991434-0.199979 121.587141z m-753.120349 0c0 43.195432 0.399958 86.390863-0.199979 129.586295-0.299968 26.497198-18.997991 48.794839-44.395304 55.294152-24.797377 6.299334-51.994501-3.999577-64.693158-26.497198-5.19945-9.199027-8.899059-20.597822-8.999049-30.996722-0.699926-84.891022-0.599937-169.682054-0.299968-254.573076 0.099989-33.396468 26.497198-59.09375 59.393719-59.09375 32.99651 0 58.793782 25.297325 59.09375 59.09375 0.499947 42.295527 0.199979 84.791032 0.099989 127.186549z m0 0" fill="#ffffff" p-id="22677"></path></svg>