<?xml version="1.0" encoding="utf-8"?>
<!-- Generator: Adobe Illustrator 22.1.0, SVG Export Plug-In . SVG Version: 6.00 Build 0)  -->
<svg version="1.1" id="图层_1" xmlns="http://www.w3.org/2000/svg" xmlns:xlink="http://www.w3.org/1999/xlink" x="0px" y="0px"
	 viewBox="0 0 64 64" style="enable-background:new 0 0 64 64;" xml:space="preserve">
<style type="text/css">
	.st0{fill:url(#SVGID_1_);}
</style>
<linearGradient id="SVGID_1_" gradientUnits="userSpaceOnUse" x1="0" y1="32" x2="64" y2="32">
	<stop  offset="0" style="stop-color:#27A6FA"/>
	<stop  offset="1" style="stop-color:#8E71F5"/>
</linearGradient>
<path class="st0" d="M29.7,38.9h4.6c1.3,0,2.3-1,2.3-2.3s-1-2.3-2.3-2.3h-4.6c-1.3,0-2.3,1-2.3,2.3S28.4,38.9,29.7,38.9z M29.7,48
	h4.6c1.3,0,2.3-1,2.3-2.3s-1-2.3-2.3-2.3h-4.6c-1.3,0-2.3,1-2.3,2.3S28.4,48,29.7,48z M54.9,6.9h-9.1V4.6c0-1.3-1-2.3-2.3-2.3
	s-2.3,1-2.3,2.3v2.3H22.9V4.6c0-1.3-1-2.3-2.3-2.3s-2.3,1-2.3,2.3v2.3H9.1C4.1,6.9,0,11,0,16v36.6c0,5,4.1,9.1,9.1,9.1h45.7
	c5,0,9.1-4.1,9.1-9.1V16C64,11,59.9,6.9,54.9,6.9z M59.4,52.6c0,2.5-2.1,4.6-4.6,4.6H9.1c-2.5,0-4.6-2.1-4.6-4.6V25.1h54.9V52.6z
	 M59.4,20.6H4.6V16c0-2.5,2.1-4.6,4.6-4.6h9.1v2.3c0,1.3,1,2.3,2.3,2.3s2.3-1,2.3-2.3v-2.3h18.3v2.3c0,1.3,1,2.3,2.3,2.3
	s2.3-1,2.3-2.3v-2.3h9.1c2.5,0,4.6,2.1,4.6,4.6V20.6z M16,48h4.6c1.3,0,2.3-1,2.3-2.3s-1-2.3-2.3-2.3H16c-1.3,0-2.3,1-2.3,2.3
	S14.7,48,16,48z M43.4,38.9H48c1.3,0,2.3-1,2.3-2.3s-1-2.3-2.3-2.3h-4.6c-1.3,0-2.3,1-2.3,2.3S42.1,38.9,43.4,38.9z M16,38.9h4.6
	c1.3,0,2.3-1,2.3-2.3s-1-2.3-2.3-2.3H16c-1.3,0-2.3,1-2.3,2.3S14.7,38.9,16,38.9z M43.4,48H48c1.3,0,2.3-1,2.3-2.3s-1-2.3-2.3-2.3
	h-4.6c-1.3,0-2.3,1-2.3,2.3S42.1,48,43.4,48z"/>
</svg>
