<?xml version="1.0" encoding="utf-8"?>
<!-- Generator: Adobe Illustrator 22.1.0, SVG Export Plug-In . SVG Version: 6.00 Build 0)  -->
<svg version="1.1" id="图层_1" xmlns="http://www.w3.org/2000/svg" xmlns:xlink="http://www.w3.org/1999/xlink" x="0px" y="0px"
	 viewBox="0 0 141.5 128" style="enable-background:new 0 0 141.5 128;" xml:space="preserve">
<style type="text/css">
	.st0{fill:#46A9FD;}
</style>
<path class="st0" d="M125.2,24.3c-27.6,0-55.3,0-82.9,0c-2.2,0-4.3,0-6.7,0c-0.6-3.9-1-7.1-1.5-10.2c-1.3-7.3-3.6-9.3-10.9-9.4
	c-3.8-0.1-7.7,0-11.5,0c-4,0-7.4,1.1-7.5,5.9c-0.1,4.4,1.4,8,6.3,9c2.1,0.4,4.4,0.5,6.6,0.4c3.4-0.2,5,0.9,5.5,4.6
	c1.2,8,3,15.8,4.6,23.7c2.4,12.4,4.7,24.9,7.4,37.3c1.2,5.4,3,11.1,10,11.1c24.2,0.2,48.4,0,72.6,0.1c4.1,0,6-2.1,6.3-5.8
	c0.3-4.1-2.5-5.6-6.1-5.9c-1.6-0.1-3.2-0.1-4.8-0.1c-18.4,0-36.7,0.1-55.1,0c-11.8-0.1-9.5,2.3-11.8-10.5c-0.1-0.4,0.2-0.8,0.5-1.8
	c2,0,4.2,0,6.3,0c21.2,0,42.4-0.1,63.5,0.1c6.7,0.1,10.6-2.7,12.8-8.8c2.7-7.8,5.5-15.6,8.3-23.3C141.8,26.8,140,24.3,125.2,24.3z"
	/>
<path class="st0" d="M49.3,100.9c-6.7,0-12.3,5.6-12.3,12.2c0,6.7,5.5,12.1,12.3,12.3c7.1,0.1,13-5.4,13-12.3
	C62.2,106.3,56.6,101,49.3,100.9z"/>
<path class="st0" d="M106.7,101.4c-6.9,0-12.4,5.5-12.4,12.2c0.1,6.6,5.8,12.1,12.6,12.1c7.3,0,12.8-5.6,12.6-12.7
	C119.4,106.3,114,101.3,106.7,101.4z"/>
</svg>
