<?xml version="1.0" standalone="no"?><!DOCTYPE svg PUBLIC "-//W3C//DTD SVG 1.1//EN" "http://www.w3.org/Graphics/SVG/1.1/DTD/svg11.dtd"><svg t="1534832977054" class="icon" style="" viewBox="0 0 1102 1024" version="1.1" xmlns="http://www.w3.org/2000/svg" p-id="14004" xmlns:xlink="http://www.w3.org/1999/xlink" width="68.875" height="64"><defs><style type="text/css"></style></defs><path d="M792.665009 0C709.721009 0 643.397317 31.586462 584.871778 93.735385l-0.157538 0.078769L551.394855 138.397538l-33.319384-41.747692-0.078769-0.157538C459.392394 34.185846 392.989932 0 310.124702 0c-82.865231 0-160.689231 34.264615-219.293539 96.413538A337.683692 337.683692 0 0 0 0.01024 329.176615c0 87.827692 32.295385 170.456615 90.742154 232.605539l411.726769 440.556308A66.953846 66.953846 0 0 0 551.394855 1024a66.953846 66.953846 0 0 0 48.994462-21.661538l411.648-440.556308A337.132308 337.132308 0 0 0 1102.779471 329.176615c0-87.906462-32.295385-170.614154-90.820923-232.763077C953.433009 34.185846 875.451471 0 792.665009 0" fill="#fa5e6a" p-id="14005"></path></svg>