<?xml version="1.0" standalone="no"?><!DOCTYPE svg PUBLIC "-//W3C//DTD SVG 1.1//EN" "http://www.w3.org/Graphics/SVG/1.1/DTD/svg11.dtd"><svg t="1535073447392" class="icon" style="" viewBox="0 0 1024 1024" version="1.1" xmlns="http://www.w3.org/2000/svg" p-id="1902" xmlns:xlink="http://www.w3.org/1999/xlink" width="64" height="64"><defs><style type="text/css"></style></defs><path d="M407.354368 841.095168c-23.683072 23.683072-62.082048 23.683072-85.766144 0L26.167296 545.67424c-23.684096-23.684096-23.683072-62.083072 0-85.768192 23.684096-23.683072 62.083072-23.683072 85.767168 0l295.419904 295.421952c23.68512 23.683072 23.68512 62.081024 0 85.767168z" fill="#46a9fd" p-id="1903"></path><path d="M997.552128 174.016512c23.686144 23.684096 23.684096 62.083072 0 85.767168L416.242688 841.09312c-23.684096 23.68512-62.083072 23.68512-85.767168 0-23.684096-23.684096-23.684096-62.082048 0-85.767168l581.310464-581.310464c23.682048-23.683072 62.083072-23.684096 85.766144 0.001024z" fill="#46a9fd" p-id="1904"></path></svg>