<?xml version="1.0" standalone="no"?><!DOCTYPE svg PUBLIC "-//W3C//DTD SVG 1.1//EN" "http://www.w3.org/Graphics/SVG/1.1/DTD/svg11.dtd"><svg t="1535533438656" class="icon" style="" viewBox="0 0 1024 1024" version="1.1" xmlns="http://www.w3.org/2000/svg" p-id="19398" xmlns:xlink="http://www.w3.org/1999/xlink" width="64" height="64"><defs><style type="text/css"></style></defs><path d="M896 422.4C896 204.8 723.2 32 512 32s-384 172.8-384 384v6.4c-38.4 12.8-64 44.8-64 89.6v128c0 51.2 44.8 96 96 96S256 691.2 256 640V512c0-44.8-25.6-76.8-64-89.6v-6.4c0-179.2 140.8-320 320-320s320 140.8 320 320v6.4c-38.4 12.8-64 51.2-64 89.6v128c0 51.2 44.8 96 96 96S960 691.2 960 640V512c0-44.8-25.6-76.8-64-89.6z m-256 505.6V896c0-19.2-12.8-32-32-32h-128c-19.2 0-32 12.8-32 32v64c0 19.2 12.8 32 32 32h128c160 0 288-115.2 288-256h-64c0 96-83.2 179.2-192 192z" fill="#46a9fd" p-id="19399"></path></svg>