<?xml version="1.0" standalone="no"?><!DOCTYPE svg PUBLIC "-//W3C//DTD SVG 1.1//EN" "http://www.w3.org/Graphics/SVG/1.1/DTD/svg11.dtd"><svg t="1535076404333" class="icon" style="" viewBox="0 0 1024 1024" version="1.1" xmlns="http://www.w3.org/2000/svg" p-id="15075" xmlns:xlink="http://www.w3.org/1999/xlink" width="64" height="64"><defs><style type="text/css"></style></defs><path d="M916.763331 368.988838c-11.684182-108.284391-57.268948-199.61849-140.539316-270.21728-100.878924-85.574291-218.214442-116.677254-347.234141-88.86561-141.855844 30.609266-240.266278 116.512688-294.902171 250.963065C110.225641 319.619055 100.845382 381.166718 110.225641 444.524606c8.063731 54.142196 29.786436 103.841111 55.458723 151.7298 81.789274 152.058932 190.896495 283.547121 307.244617 409.7692 22.874666 24.849458 59.079174 23.697496 81.13101-1.974791 55.787855-64.838982 112.563106-129.184266 165.882472-195.998039 63.028756-78.991653 119.804007-162.426587 161.110059-255.077213 21.558139-48.217822 38.179299-97.752171 35.875375-151.565234-0.164566-10.861352 0.82283-21.722705-0.164566-32.419491z m-404.832221 206.365693c-98.245868 0.493698-183.984725-80.472747-183.655594-183.326461 0.164566-38.014733 11.684182-73.396411 31.432096-102.853715 12.013314-17.773122 27.153381-33.406887 44.59737-46.078464 0.82283-0.658264 1.645659-1.151962 2.468489-1.64566 29.457304-20.735309 65.661812-32.913189 104.993073-33.24232 101.04349 0 183.820159 82.941236 183.820159 184.149291 0 100.385226-82.77667 182.339066-183.655593 182.997329z" fill="#46a9fd" p-id="15076"></path></svg>