<?xml version="1.0" encoding="utf-8"?>
<!-- Generator: Adobe Illustrator 22.1.0, SVG Export Plug-In . SVG Version: 6.00 Build 0)  -->
<svg version="1.1" id="图层_1" xmlns="http://www.w3.org/2000/svg" xmlns:xlink="http://www.w3.org/1999/xlink" x="0px" y="0px"
	 viewBox="0 0 64 64" style="enable-background:new 0 0 64 64;" xml:space="preserve">
<style type="text/css">
	.st0{fill:#FFFFFF;}
</style>
<path class="st0" d="M4.7,37c0.6-0.5,1.3-0.8,1.9-0.8c2.4,0,5.3,3.1,8.3,6.3c2.6,2.7,5.5,5.8,8.2,6.9c5.7,2.2,11.1,2.7,14.5,2.7
	l1.8,0c0.9,0,1.6-0.7,1.6-1.6c0-0.4-0.1-0.7-0.3-1l-1.1-1.4c-2.2-2.8-2.5-3.4-2.5-3.5c-0.2-0.5-0.1-1.1,0.3-1.7c0.4-0.7,1.1-1,1.8-1
	c0.1,0,0.2,0,0.3,0c0.3,0,1.5,0.3,6.2,2.1l3.3,1.3l1.2,0.5c4.4,1.7,8.6,3.4,9.9,4v11.1H26.4c-3.7,0-8.2-2.3-12.9-6.5
	c-4.2-3.8-7.6-8.5-9.1-12.2C3.9,40.4,3.4,38.2,4.7,37 M61.5,46.9c-1.2-0.5-5.4-2.2-10.1-4.1l-0.5-0.2c4.1-4.7,6.3-10.7,6.3-16.9
	C57.2,11.5,45.7,0,31.6,0C17.5,0,6.1,11.5,6.1,25.7c0,1.1,0.1,2.3,0.2,3.4c0.1,1,1,1.6,2,1.5c1-0.1,1.6-1,1.5-2
	c-0.1-1-0.2-1.9-0.2-2.9c0-12.2,9.9-22.2,22.1-22.2c12.2,0,22.1,10,22.1,22.2c0,5.8-2.2,11.4-6.3,15.5L46.8,41
	c-3.6-1.4-5.8-2.1-6.8-2.2c-2-0.3-4,0.6-5.2,2.4c-1,1.5-1.2,3.2-0.6,4.7c0.2,0.6,0.9,1.6,2,3.1c-4.1-0.2-8.1-1-12-2.5
	c-2.1-0.8-4.7-3.6-7-6.1c-3.5-3.8-6.8-7.3-10.6-7.3c-1.5,0-2.9,0.5-4,1.6c-1.5,1.3-2.8,3.8-1,8.6c1.6,4.2,5.4,9.3,9.9,13.4
	c5.2,4.7,10.5,7.3,15,7.3h33.9c1.6,0,3-1.3,3-3V49.6C63.3,48.4,62.6,47.3,61.5,46.9C61.5,46.9,61.5,46.9,61.5,46.9z M39.7,12.5
	c-0.7-0.7-1.8-0.7-2.5-0.1l0,0l-5.8,5.6l-5.6-5.6c-0.3-0.3-0.8-0.5-1.2-0.5c-0.5,0-0.9,0.2-1.2,0.5c-0.7,0.7-0.7,1.8,0,2.5l6,6.1
	h-4.8c-1,0-1.7,0.8-1.7,1.8c0,1,0.8,1.8,1.7,1.8h5v3.3h-5c-1,0-1.8,0.8-1.8,1.8c0,1,0.8,1.8,1.8,1.8h5v5.2c0,1,0.8,1.8,1.7,1.8
	c1,0,1.7-0.8,1.7-1.8v-5.2h5.1c1,0,1.8-0.8,1.8-1.8c0-1-0.8-1.8-1.8-1.8h-5.1v-3.3h5.1c1,0,1.8-0.8,1.8-1.8c0-1-0.8-1.8-1.8-1.8
	h-4.9l6.2-6C40.4,14.3,40.4,13.2,39.7,12.5z"/>
</svg>
