<?xml version="1.0" encoding="utf-8"?>
<!-- Generator: Adobe Illustrator 22.1.0, SVG Export Plug-In . SVG Version: 6.00 Build 0)  -->
<svg version="1.1" id="图层_1" xmlns="http://www.w3.org/2000/svg" xmlns:xlink="http://www.w3.org/1999/xlink" x="0px" y="0px"
	 viewBox="0 0 64 64" style="enable-background:new 0 0 64 64;" xml:space="preserve">
<style type="text/css">
	.st0{fill:#FFFFFF;}
</style>
<path class="st0" d="M44.4,13.4h11.5l-4.9,4.9c-0.4,0.4-0.6,0.9-0.6,1.4c0,0.5,0.2,1,0.6,1.4c0.4,0.4,0.9,0.6,1.4,0.6
	c0.5,0,1-0.2,1.4-0.6l7.9-7.9c0.7-0.3,1.2-1,1.2-1.8c0-0.3-0.1-0.5-0.2-0.7c0,0,0-0.1,0-0.1c-0.1-0.2-0.2-0.3-0.3-0.5
	c0-0.1-0.1-0.1-0.1-0.2c-0.2-0.2-0.3-0.2-0.5-0.3c0,0-0.1-0.1-0.1-0.1l-7.8-7.9C53.5,1.2,53,1,52.5,1c-0.5,0-1,0.2-1.4,0.6
	c-0.8,0.8-0.8,2,0,2.8l4.8,4.9H44.4c-1.1,0-2.1,0.9-2.1,2.1c0,0.6,0.2,1.1,0.6,1.5C43.3,13.2,43.9,13.4,44.4,13.4z M24.8,15.8
	c-0.4-0.4-1-0.7-1.6-0.7s-1.1,0.2-1.6,0.7c-0.9,0.9-0.9,2.3,0,3.1l8.2,8.2v0.4h-6.5c-1.2,0-2.2,1-2.2,2.2c0,1.2,1,2.2,2.2,2.2h6.6
	v4.4h-6.6c-0.6,0-1.1,0.2-1.6,0.7c-0.4,0.4-0.7,1-0.7,1.6c0,0.6,0.2,1.1,0.7,1.6c0.4,0.4,1,0.7,1.6,0.7h6.6v6.6
	c0,0.6,0.2,1.1,0.7,1.6c0.4,0.4,1,0.7,1.6,0.7c0.6,0,1.1-0.2,1.6-0.7c0.4-0.4,0.7-1,0.7-1.6v-6.6H41c0.6,0,1.1-0.2,1.6-0.7
	c0.4-0.4,0.7-1,0.7-1.6c0-0.6-0.2-1.1-0.7-1.6c-0.4-0.4-1-0.7-1.6-0.7h-6.7V32H41c0.6,0,1.1-0.2,1.6-0.7c0.4-0.4,0.7-1,0.7-1.6
	s-0.2-1.1-0.7-1.6c-0.4-0.4-1-0.7-1.6-0.7h-6.7v-0.1l8.2-8.6c0.8-0.9,0.8-2.3-0.1-3.1c-0.4-0.4-1-0.6-1.6-0.6
	c-0.6,0-1.1,0.2-1.5,0.7l-7,7.4L24.8,15.8z M35,3.2C35,2,34,1,32.8,1H32v4.4h0.8C34,5.4,35,4.4,35,3.2L35,3.2z"/>
<path class="st0" d="M62.9,31.9c0-1.2-1-2.2-2.2-2.2s-2.2,1-2.2,2.2V32c0,14.7-11.9,26.6-26.6,26.6S5.4,46.6,5.4,32S17.3,5.4,32,5.4
	h0V1C14.9,1,1,14.9,1,32s13.9,31,31,31s31-13.9,31-31c0-0.5,0-1.1,0-1.6L62.9,31.9L62.9,31.9z"/>
</svg>
