<?xml version="1.0" encoding="utf-8"?>
<!-- Generator: Adobe Illustrator 22.1.0, SVG Export Plug-In . SVG Version: 6.00 Build 0)  -->
<svg version="1.1" id="图层_1" xmlns="http://www.w3.org/2000/svg" xmlns:xlink="http://www.w3.org/1999/xlink" x="0px" y="0px"
	 viewBox="0 0 64 64" style="enable-background:new 0 0 64 64;" xml:space="preserve">
<style type="text/css">
	.st0{fill:url(#SVGID_1_);}
</style>
<linearGradient id="SVGID_1_" gradientUnits="userSpaceOnUse" x1="9.4171" y1="54.5644" x2="54.597" y2="9.3846">
	<stop  offset="0" style="stop-color:#5B95FF"/>
	<stop  offset="0.4" style="stop-color:#5BA0FF"/>
	<stop  offset="1" style="stop-color:#49C1FF"/>
</linearGradient>
<path class="st0" d="M32,0C14.4,0,0,14.4,0,32c0,17.6,14.3,32,32,32v0c17.6,0,32-14.3,32-32C64,14.3,49.6,0,32,0z M47.1,33.7
	c-2.3,0.5-12.8,11.1-13.3,13.4h0l-2.4-0.1l-1.2,0.1c-0.5-2.4-11.1-12.9-13.4-13.4l0.1-3.5c2.3-0.5,12.8-11,13.3-13.4l3.5,0.1
	c0.5,2.3,11.1,12.8,13.4,13.3L47.1,33.7z"/>
</svg>
