<?xml version="1.0" standalone="no"?><!DOCTYPE svg PUBLIC "-//W3C//DTD SVG 1.1//EN" "http://www.w3.org/Graphics/SVG/1.1/DTD/svg11.dtd"><svg t="1535355018475" class="icon" style="" viewBox="0 0 1024 1024" version="1.1" xmlns="http://www.w3.org/2000/svg" p-id="4382" xmlns:xlink="http://www.w3.org/1999/xlink" width="64" height="64"><defs><style type="text/css"></style></defs><path d="M513.5 959c-26.3 0-52.6-2.4-78.7-7.2-13.6-2.5-22.6-15.5-20.1-29.1 2.5-13.6 15.5-22.6 29.1-20.1 44.6 8.2 89.7 8.5 134.1 0.9 45.8-7.8 89.6-23.9 130.1-47.6 0.1 0 0.1-0.1 0.2-0.1 46.7-26.9 86.7-62.1 118.9-104.6 31.1-41.1 53.6-87.2 66.9-137.1 13.3-49.7 16.8-100.7 10.4-151.5-6.6-52.5-23.5-102.6-50.4-148.8-25.3-43.4-56-79.4-93.7-109.9-10.7-8.7-12.4-24.4-3.7-35.2 8.7-10.7 24.4-12.4 35.2-3.7 42.5 34.4 76.9 74.8 105.4 123.6 30.2 52 49.3 108.4 56.8 167.7 7.2 57.2 3.2 114.7-11.7 170.7-15 56.2-40.4 108.1-75.4 154.4-36.2 47.9-81.2 87.5-133.8 117.7-45.7 26.8-95.2 44.9-146.9 53.8C562.2 956.9 537.8 959 513.5 959zM221 841.1c-6.1 0-12.2-2.2-17.1-6.7-32.9-30.7-58.2-63.4-77.6-100-30.1-51.9-49.1-108.1-56.5-167.2-7.2-57.2-3.2-114.7 11.7-170.7 15-56.2 40.4-108.1 75.4-154.4 36.3-47.9 81.3-87.5 133.9-117.8 73.8-42.7 158.6-63.1 245.3-58.8 13.8 0.7 24.4 12.4 23.8 26.2-0.7 13.8-12.4 24.4-26.2 23.8-77.1-3.8-152.4 14.3-217.9 52.2-46.8 26.9-86.8 62.1-119 104.7-31.1 41.1-53.6 87.2-66.9 137.1-13.3 49.7-16.8 100.7-10.4 151.5 6.6 52.5 23.5 102.6 50.4 148.7 0.2 0.3 0.3 0.6 0.5 0.9 16.7 31.7 38.8 60.3 67.7 87.2 10.1 9.4 10.6 25.3 1.2 35.4C234.4 838.5 227.7 841.1 221 841.1zM513.5 964c-26.5 0-53.3-2.5-79.6-7.3-7.9-1.4-14.7-5.9-19.3-12.5-4.6-6.6-6.3-14.6-4.8-22.5 1.4-7.9 5.9-14.7 12.5-19.3 6.6-4.6 14.6-6.3 22.5-4.8 44 8.1 88.5 8.4 132.4 0.9 45.2-7.7 88.4-23.5 128.4-47l0.3-0.2c46.1-26.5 85.6-61.3 117.4-103.3 30.7-40.5 52.9-86.1 66.1-135.4 13.1-49.1 16.6-99.4 10.3-149.6-6.5-51.9-23.2-101.3-49.7-146.9-25-42.9-55.3-78.4-92.5-108.5-12.9-10.4-14.9-29.4-4.4-42.2 10.4-12.9 29.4-14.9 42.2-4.4 42.9 34.8 77.8 75.7 106.6 125 30.6 52.6 49.9 109.7 57.4 169.6 7.3 57.9 3.3 115.9-11.9 172.6-15.2 56.8-40.8 109.3-76.2 156.1-36.6 48.4-82.1 88.5-135.3 119.1-46.2 27.1-96.2 45.4-148.6 54.4C562.8 961.9 538 964 513.5 964zM439.2 907.1c-4 0-7.9 1.2-11.3 3.5-4.4 3-7.4 7.6-8.3 12.9-1 5.3 0.2 10.6 3.2 15 3 4.4 7.6 7.4 12.9 8.3 25.7 4.7 51.9 7.1 77.8 7.1 24 0 48.2-2.1 72-6.1 51.1-8.7 100-26.6 145.2-53.1 52-29.9 96.5-69.1 132.3-116.4 34.6-45.7 59.7-97.1 74.5-152.6 14.8-55.4 18.7-112.2 11.6-168.7-7.4-58.6-26.2-114.4-56.1-165.8-28.2-48.3-62.2-88.3-104.2-122.2-8.6-6.9-21.2-5.6-28.1 3-6.9 8.6-5.6 21.2 3 28.1 38.2 30.9 69.2 67.3 94.8 111.3 27.2 46.8 44.3 97.4 51 150.6 6.5 51.4 2.9 103.1-10.6 153.4-13.5 50.5-36.3 97.3-67.8 138.8-32.6 43.1-73.1 78.7-120.4 105.9l-0.1 0.1c-41.1 24.1-85.4 40.4-131.8 48.3-45 7.7-90.7 7.4-135.9-0.9C441.7 907.3 440.4 907.1 439.2 907.1zM221 846.1c-7.6 0-14.9-2.9-20.5-8.1-33.3-31-58.9-64.1-78.5-101.2-30.4-52.4-49.6-109.3-57.1-169-7.3-57.9-3.3-115.9 11.9-172.6 15.2-56.8 40.8-109.3 76.2-156.1 36.7-48.4 82.2-88.5 135.4-119.1 74.6-43.2 160.4-63.8 248.1-59.5 16.5 0.8 29.3 14.9 28.5 31.4-0.8 16-14.1 28.6-30 28.6-0.5 0-1 0-1.5 0C457.4 116.8 383 134.6 318.4 172.1 272.2 198.6 232.7 233.4 200.9 275.4c-30.7 40.5-52.9 86.1-66.1 135.4-13.1 49.1-16.6 99.4-10.3 149.6 6.5 51.9 23.2 101.3 49.7 146.9 0.2 0.4 0.4 0.7 0.6 1.1 16.4 31.2 38.2 59.3 66.7 85.8 5.9 5.5 9.2 12.9 9.5 20.9s-2.6 15.7-8.1 21.5C237.3 842.7 229.3 846.1 221 846.1zM513.7 70c-78 0-153.7 20.1-220.4 58.7-52 29.9-96.5 69.1-132.4 116.5C126.4 290.9 101.3 342.3 86.5 397.9c-14.8 55.4-18.7 112.2-11.6 168.7 7.3 58.4 26.1 114 55.8 165.3l0.1 0.2c19.1 36.1 44.1 68.4 76.6 98.7 3.7 3.5 8.6 5.4 13.6 5.4 5.6 0 10.8-2.3 14.6-6.4 3.6-3.9 5.6-9 5.4-14.3-0.2-5.3-2.4-10.3-6.3-13.9-29.3-27.3-51.7-56.2-68.7-88.5-0.1-0.3-0.3-0.5-0.4-0.7-27.2-46.7-44.3-97.4-51-150.6-6.5-51.4-2.9-103.1 10.6-153.4C138.6 357.6 161.4 310.9 192.9 269.4c32.6-43.1 73.1-78.7 120.5-106 66.3-38.4 142.6-56.6 220.6-52.8 11 0.5 20.4-8 21-19 0.5-11-8-20.4-19-21C528.5 70.2 521.1 70 513.7 70zM489 425.6l-86.1-91.9c-11.5-11.5-9.6-30.6 1.9-42.1l0 0c11.5-11.5 30.6-9.6 42.1 1.9l86.1 91.9c11.5 11.5 9.6 30.6-1.9 42.1l0 0C517.7 437.1 500.5 437.1 489 425.6zM510.5 439.4c-9.2 0-18.1-3.5-25-10.3l-0.1-0.1-86.1-91.8c-13-13-12.1-35.1 2-49.1 13-13 35.1-12.2 49.2 1.9l0.1 0.1 86.1 91.8c13 13 12.1 35.1-2 49.1l-0.3 0.3-0.3 0.2C526.7 436.8 518.5 439.4 510.5 439.4zM492.6 422.1c9.3 9.2 23.4 9.8 35.3 1.6 9.7-10 10.5-25.9 1.6-34.7l-0.1-0.1-86.1-91.8c-10-10-26-10.8-35-1.9-10 10-10.9 26.1-1.9 35l0.1 0.1L492.6 422.1zM492.9 385.4l91.9-86.1c11.5-11.5 30.6-9.6 42.1 1.9l0 0c9.6 11.5 9.6 28.7-1.9 40.2l-91.9 86.1c-11.5 11.5-30.6 11.5-42.1 0l0 0C479.5 416 481.4 396.9 492.9 385.4zM512 441.1c-9.4 0-18.1-3.6-24.6-10.1-6.5-6.5-9.7-15.3-9.1-24.9 0.6-9 4.6-17.8 11-24.3l0.1-0.1L581.3 295.6c13-13 35.1-12.1 49.1 2l0.3 0.3c11.6 13.9 10.6 34.1-2.2 46.9l-0.1 0.1-91.8 86.1C530 437.6 521.3 441.1 512 441.1zM496.3 389c-4.7 4.7-7.7 11.2-8.1 17.8-0.4 6.7 1.8 12.8 6.2 17.2 4.6 4.6 10.8 7.1 17.5 7.1 6.7 0 12.9-2.5 17.5-7.1l0.1-0.1 91.8-86.1c9.1-9.1 9.8-23.4 1.7-33.2-10-9.9-25.9-10.7-34.9-1.8l-0.1 0.1L496.3 389zM768.5 142.3l130.2 24.9c15.3 3.8 26.8 19.1 23 34.5l0 1.9c-3.8 15.3-19.1 26.8-34.5 23L757 201.6c-15.3-3.8-26.8-19.1-23-34.5l0-1.9C737.9 149.9 753.2 138.4 768.5 142.3zM893.3 230.2c-2.2 0-4.5-0.3-6.7-0.8l-130.3-24.9c-8.2-2-15.6-7.2-20.4-14.1-5-7.2-6.7-15.6-4.8-23.6l0-1.9 0.1-0.4c4.4-17.7 21.8-29.2 38-25.2l130.3 24.9c8.2 2 15.6 7.2 20.4 14.1 5 7.2 6.7 15.6 4.8 23.6l0 1.9-0.1 0.4c-2 8.2-7.2 15.6-14.1 20.4C905.1 228.3 899.2 230.2 893.3 230.2zM757.7 198.7 888 223.6c6.4 1.6 13.2 0.2 19.1-3.9 5.7-3.9 9.9-9.9 11.6-16.6l0-1.9 0.1-0.4c1.6-6.4 0.2-13.2-3.9-19.1-4-5.7-10.1-10-16.8-11.7l-130.3-24.9c-13-3.2-27 6.1-30.7 20.4l0 1.9-0.1 0.4c-1.6 6.4-0.2 13.2 3.9 19.1C744.8 192.7 751 197 757.7 198.7zM115.7 774l130.2 24.9c15.3 3.8 26.8 19.1 23 34.5l0 1.9c-3.8 15.3-19.1 26.8-34.5 23l-130.2-24.9c-15.3-3.8-26.8-19.1-23-34.5l0-1.9C83.2 781.7 100.4 770.2 115.7 774zM240.3 862c-2.2 0-4.4-0.3-6.6-0.8l-130.3-24.9c-17.6-4.4-29-21.6-25.2-37.7l0-1.9c1-8 5.8-15.5 13.2-20.5 7.6-5.2 16.7-7 24.9-5l130.3 24.9c8.2 2 15.6 7.2 20.4 14.1 5 7.2 6.7 15.6 4.8 23.6l0 1.9-0.1 0.4C268 851.3 254.4 862 240.3 862zM104.9 830.4l130.3 24.9c13 3.2 27-6.1 30.7-20.4l0-1.9 0.1-0.4c1.6-6.4 0.2-13.2-3.9-19.1-4-5.7-10.1-10-16.8-11.7l-130.3-24.9c-6.6-1.7-14-0.2-20.2 4.1-5.9 4-9.7 9.9-10.6 16.2l0 2.1-0.1 0.4C80.9 812.7 90.4 826.8 104.9 830.4zM653.7 488.8 372.3 488.8c-15.3 0-26.8-11.5-26.8-26.8l0-5.7c0-15.3 11.5-26.8 26.8-26.8l281.4 0c15.3 0 26.8 11.5 26.8 26.8l0 5.7C680.5 477.3 669 488.8 653.7 488.8zM653.7 493.8 372.2 493.8c-18.1 0-31.8-13.7-31.8-31.8l0-5.7c0-18.1 13.7-31.8 31.8-31.8l281.4 0c18.1 0 31.8 13.7 31.8 31.8l0 5.7C685.5 480.1 671.8 493.8 653.7 493.8zM372.2 434.4c-12.6 0-21.8 9.2-21.8 21.8l0 5.7c0 12.6 9.2 21.8 21.8 21.8l281.4 0c12.6 0 21.8-9.2 21.8-21.8l0-5.7c0-12.6-9.2-21.8-21.8-21.8L372.2 434.4 372.2 434.4zM485.2 695.5 485.2 483c0-15.3 11.5-26.8 26.8-26.8l5.7 0c15.3 0 26.8 11.5 26.8 26.8l0 214.4c0 15.3-11.5 26.8-26.8 26.8l-7.7 0C496.7 722.3 485.2 710.8 485.2 695.5zM517.7 729.2l-8.4-0.1c-16.6-2.4-29.2-16.9-29.2-33.7L480.1 483c0-18.1 13.7-31.8 31.8-31.8l5.7 0c18.1 0 31.8 13.7 31.8 31.8l0 214.4C549.5 715.6 535.9 729.2 517.7 729.2zM510.5 719.2l7.3 0c12.6 0 21.8-9.2 21.8-21.8L539.6 483c0-12.6-9.2-21.8-21.8-21.8l-5.7 0c-12.6 0-21.8 9.2-21.8 21.8l0 212.5C490.2 707.3 498.9 717.4 510.5 719.2zM653.7 622.8 372.3 622.8c-15.3 0-26.8-11.5-26.8-26.8l0-5.7c0-15.3 11.5-26.8 26.8-26.8l281.4 0c15.3 0 26.8 11.5 26.8 26.8l0 5.7C680.5 611.3 669 622.8 653.7 622.8zM653.7 627.8 372.2 627.8c-18.1 0-31.8-13.7-31.8-31.8l0-5.7c0-18.1 13.7-31.8 31.8-31.8l281.4 0c18.1 0 31.8 13.7 31.8 31.8l0 5.7C685.5 614.1 671.8 627.8 653.7 627.8zM372.2 568.4c-12.6 0-21.8 9.2-21.8 21.8l0 5.7c0 12.6 9.2 21.8 21.8 21.8l281.4 0c12.6 0 21.8-9.2 21.8-21.8l0-5.7c0-12.6-9.2-21.8-21.8-21.8L372.2 568.4z" p-id="4383" fill="#ffffff"></path><path d="M105.6 769.3l144.9 27.7c17 4.3 29.8 21.3 25.6 38.3l0 2.1c-4.3 17-21.3 29.8-38.3 25.6l-144.9-27.7c-17-4.3-29.8-21.3-25.6-38.3l0-2.1C69.4 777.8 88.5 765 105.6 769.3z" p-id="4384" fill="#ffffff"></path><path d="M762 132.5l150.7 30.8c17.7 4.7 30.8 22.6 26.1 40.3l0 2.2c-4.7 17.7-22.6 30.8-40.3 26.1l-150.7-30.8c-17.7-4.7-30.8-22.6-26.1-40.3l0-2.2C724.1 140.9 744.3 127.8 762 132.5z" p-id="4385" fill="#ffffff"></path></svg>