<?xml version="1.0" encoding="utf-8"?>
<!-- Generator: Adobe Illustrator 22.1.0, SVG Export Plug-In . SVG Version: 6.00 Build 0)  -->
<svg version="1.1" id="图层_1" xmlns="http://www.w3.org/2000/svg" xmlns:xlink="http://www.w3.org/1999/xlink" x="0px" y="0px"
	 viewBox="0 0 64 64" style="enable-background:new 0 0 64 64;" xml:space="preserve">
<style type="text/css">
	.st0{fill:#FFA93D;}
</style>
<path class="st0" d="M38.5,1H24.9c-1.7,0-3,1.5-3,3.3c0,1.8,1.3,3.3,3,3.3h13.7c1.6,0,2.9-1.5,2.9-3.3C41.5,2.5,40.2,1,38.5,1
	L38.5,1z M53.3,3.2h-6.8c0.1,0.4,0.1,0.7,0.1,1.1c0,2.8-2,5.5-4.4,5.5H21.4c-2.5,0-4.6-2.7-4.6-5.5c0-0.4,0-0.7,0.1-1.1h-6.9
	c-5.5,0-6.9,3.1-6.9,7.6v44.6c0,4.8,1.9,7.5,7.3,7.5h42.4c5.3,0,7.9-2.1,7.9-7.5V10.8C60.8,6.3,58.4,3.2,53.3,3.2L53.3,3.2z
	 M46.3,47.3H16.9c-1.1,0-2.2-1.3-2.2-2.4c0-1.1,0.9-2,2-2h29.4c1.1,0,2,0.8,2.1,2C48.1,45.9,47.4,47.3,46.3,47.3L46.3,47.3z
	 M46.4,35.5H17c-1.1,0-1.8-1.2-1.8-2.3c0-1.1,0.9-2.2,2-2.2h29.4c1.1,0,2,1,2.1,2.2C48.7,34.3,47.5,35.5,46.4,35.5L46.4,35.5z
	 M46.4,23.3H17c-1.1,0-1.8-1.2-1.8-2.3s0.9-2.2,2-2.2h29.4c1.1,0,2,1,2.1,2.2C48.7,22.2,47.5,23.3,46.4,23.3L46.4,23.3z"/>
</svg>
