<?xml version="1.0" encoding="utf-8"?>
<!-- Generator: Adobe Illustrator 22.1.0, SVG Export Plug-In . SVG Version: 6.00 Build 0)  -->
<svg version="1.1" id="图层_1" xmlns="http://www.w3.org/2000/svg" xmlns:xlink="http://www.w3.org/1999/xlink" x="0px" y="0px"
	 viewBox="0 0 64 64" style="enable-background:new 0 0 64 64;" xml:space="preserve">
<style type="text/css">
	.st0{fill:#46A9FD;}
</style>
<path class="st0" d="M63.9,32.1c0-17.7-14.3-32-32-32s-32,14.3-32,32s14.3,32,32,32S63.9,49.8,63.9,32.1z M36.5,46.8
	c-4.7,5-10.7,6.7-11.4,2.9c-0.5-2.9,2.3-13.3,2.9-17.2c0.2-1.3-1.4,0-1.4,0s-4.6,3.3-5.7,1.4c-0.2-0.3,1-1.2,1.4-1.4
	c0,0,9.7-7.1,12.8-5.7c3.2,1.4-1.1,10.2-1.4,11.4c-0.3,1.3-2.3,11.2,4.3,5.7C37.9,43.9,41.2,41.7,36.5,46.8 M34.1,22.4
	c-2.8-0.2-4.9-2.5-4.7-5.3c0.2-2.8,2.5-4.9,5.3-4.7s4.9,2.5,4.7,5.3C39.2,20.5,36.8,22.6,34.1,22.4"/>
</svg>
