<?xml version="1.0" encoding="utf-8"?>
<!-- Generator: Adobe Illustrator 22.1.0, SVG Export Plug-In . SVG Version: 6.00 Build 0)  -->
<svg version="1.1" id="图层_1" xmlns="http://www.w3.org/2000/svg" xmlns:xlink="http://www.w3.org/1999/xlink" x="0px" y="0px"
	 viewBox="0 0 64 64" style="enable-background:new 0 0 64 64;" xml:space="preserve">
<style type="text/css">
	.st0{fill:#FF9C00;}
</style>
<path class="st0" d="M58.6,18.4c0-2.8-0.1-5.9-0.1-9.4c0-1-0.7-2-1.7-2.3C48.8,4.4,32.1,2,32,2C27.3,2.3,10.8,5.8,7.2,6.8
	C6.3,7.1,5.5,8,5.5,9c0,3.1,0,5.9-0.1,8.5C5.2,40,5.1,48.4,27.3,60.5c1.9,1,3.3,1.5,4.8,1.5s2.9-0.5,4.8-1.4
	C58.9,48.7,58.8,41.7,58.6,18.4z M28.7,15.4c0-1.1,1.5-2.1,3.4-2.1s3.4,0.9,3.4,2.1v22.2c0,1.1-1.5,2.1-3.4,2.1s-3.4-0.9-3.4-2.1
	C28.7,37.6,28.7,15.4,28.7,15.4z M32,49.9c-1.9,0-3.4-1.5-3.4-3.5c0-1.9,1.5-3.5,3.4-3.5c1.9,0,3.4,1.5,3.4,3.5
	C35.4,48.3,33.9,49.9,32,49.9z"/>
</svg>
