<?xml version="1.0" standalone="no"?><!DOCTYPE svg PUBLIC "-//W3C//DTD SVG 1.1//EN" "http://www.w3.org/Graphics/SVG/1.1/DTD/svg11.dtd"><svg t="1535535831929" class="icon" style="" viewBox="0 0 1024 1024" version="1.1" xmlns="http://www.w3.org/2000/svg" p-id="21946" xmlns:xlink="http://www.w3.org/1999/xlink" width="64" height="64"><defs><style type="text/css"></style></defs><path d="M836.608 675.84q41.984 59.392 96.256 76.8-23.552 72.704-74.752 151.552-78.848 118.784-155.648 118.784-28.672 0-84.992-19.456-52.224-19.456-91.136-19.456t-86.016 20.48Q391.168 1024 359.424 1024q-92.16 0-181.248-156.672Q89.088 712.704 89.088 563.2q0-138.24 67.584-226.304 69.632-88.064 172.032-88.064 22.528 0 50.176 5.632t57.344 20.992q31.744 17.408 52.224 24.064t31.744 6.656q13.312 0 40.96-6.144t55.296-22.528q29.696-16.384 51.2-24.576t44.032-8.192q71.68 0 129.024 38.912 30.72 20.48 62.464 60.416-47.104 40.96-68.608 71.68-39.936 57.344-39.936 124.928 0 74.752 41.984 135.168zM630.784 197.632q-35.84 33.792-65.536 44.032-10.24 3.072-26.112 5.632t-36.352 4.608q1.024-90.112 47.104-155.648T701.44 6.144q2.048 10.24 3.072 14.336v11.264q0 36.864-17.408 82.944-18.432 45.056-56.32 82.944z" p-id="21947" fill="#ffffff"></path></svg>