<?xml version="1.0" standalone="no"?><!DOCTYPE svg PUBLIC "-//W3C//DTD SVG 1.1//EN" "http://www.w3.org/Graphics/SVG/1.1/DTD/svg11.dtd"><svg t="1535076220932" class="icon" style="" viewBox="0 0 1026 1024" version="1.1" xmlns="http://www.w3.org/2000/svg" p-id="14294" xmlns:xlink="http://www.w3.org/1999/xlink" width="64.125" height="64"><defs><style type="text/css"></style></defs><path d="M955.733333 64V57.6c0-32-23.466667-57.6-53.333333-57.6H119.466667C91.733333 0 68.266667 25.6 68.266667 57.6v4.266667L0 968.533333C2.133333 998.4 23.466667 1024 53.333333 1024h919.466667c27.733333 0 51.2-25.6 53.333333-55.466667L955.733333 64zM512 437.333333c-134.4 0-245.333333-113.066667-260.266667-256-2.133333-17.066667 10.666667-32 25.6-32 12.8 0 23.466667 10.666667 25.6 25.6 10.666667 115.2 100.266667 204.8 206.933334 204.8 106.666667 0 196.266667-89.6 206.933333-204.8 4.266667-14.933333 14.933333-25.6 29.866667-25.6s27.733333 14.933333 25.6 32c-14.933333 145.066667-125.866667 256-260.266667 256z" p-id="14295" fill="#46a9fd"></path></svg>