<?xml version="1.0" standalone="no"?><!DOCTYPE svg PUBLIC "-//W3C//DTD SVG 1.1//EN" "http://www.w3.org/Graphics/SVG/1.1/DTD/svg11.dtd"><svg t="1535532770845" class="icon" style="" viewBox="0 0 1157 1024" version="1.1" xmlns="http://www.w3.org/2000/svg" p-id="18487" xmlns:xlink="http://www.w3.org/1999/xlink" width="72.3125" height="64"><defs><style type="text/css"></style></defs><path d="M1121.433309 636.420688c-8.869092 0-17.484781-3.674338-23.946548-10.769612L616.655283 84.889879c-10.769611-12.163326-24.960158-18.751794-39.784211-18.751794s-29.0146 6.71517-39.784212 18.878495L57.268993 625.777778C45.612472 638.954714 25.340262 640.095026 12.163326 628.438505c-13.303638-11.783222-14.44395-34.462757-2.660728-47.639693L489.193764 40.037614C512.253403 13.937144 543.421925 2.153922 576.871072 2.153922h0.126701c33.322445 0 64.490968 11.783222 87.550606 37.756991L1145.379856 580.672111c11.783222 13.176936 10.516209 33.322445-2.660727 45.105667-6.208364 5.448156-13.810443 10.64291-21.28582 10.64291z m0 0" fill="#46a9fd" p-id="18488"></path><path d="M960.522643 575.477357v319.79411c0 35.349666-28.634496 63.984162-63.984162 63.984163H768.696857V703.445682c0-70.572631-57.395694-127.841623-127.841623-127.841624h-127.968325c-70.572631 0-127.841623 57.268993-127.841623 127.841624v255.809948h-127.968325c-35.222965 0-63.984162-28.634496-63.984162-63.984163V575.477357H129.235338v319.79411c0 70.572631 57.395694 127.841623 127.841623 127.841624h191.825786V703.445682c0-35.222965 28.761198-63.984162 63.984162-63.984163h127.841624c35.349666 0 63.984162 28.761198 63.984162 63.984163v319.79411h191.825786c70.572631 0 127.841623-57.395694 127.841623-127.841623V575.477357h-63.857461z m0 0" fill="#46a9fd" p-id="18489"></path></svg>