<?xml version="1.0" encoding="utf-8"?>
<!-- Generator: Adobe Illustrator 22.1.0, SVG Export Plug-In . SVG Version: 6.00 Build 0)  -->
<svg version="1.1" id="图层_1" xmlns="http://www.w3.org/2000/svg" xmlns:xlink="http://www.w3.org/1999/xlink" x="0px" y="0px"
	 viewBox="0 0 64 64" style="enable-background:new 0 0 64 64;" xml:space="preserve">
<style type="text/css">
	.st0{fill:url(#SVGID_1_);}
</style>
<linearGradient id="SVGID_1_" gradientUnits="userSpaceOnUse" x1="9.3735" y1="54.6265" x2="54.6265" y2="9.3735">
	<stop  offset="0" style="stop-color:#5B95FF"/>
	<stop  offset="0.4" style="stop-color:#5BA0FF"/>
	<stop  offset="1" style="stop-color:#49C1FF"/>
</linearGradient>
<path class="st0" d="M46.6,36.7l-7.1,6.5l0,0c-0.4,0.4-1,0.6-1.5,0.6c-0.6,0-1.1-0.2-1.5-0.5c-0.9-0.7-0.9-1.8-0.1-2.5l3.8-3.5H19
	c-1.2,0-2.1-0.8-2.1-1.8c0-1,1-1.8,2.2-1.8h26C46.9,33.7,47.9,35.6,46.6,36.7 M17.4,23.9l7.1-6.5c0.4-0.4,0.9-0.6,1.5-0.6
	c0.5,0,1.1,0.1,1.5,0.5c0.9,0.7,0.9,1.8,0.2,2.6l-3.8,3.5H45c1.2,0,2.1,0.8,2.1,1.8c0,1-1,1.8-2.2,1.8H19
	C17.1,26.9,16.1,25.1,17.4,23.9 M32,0C14.3,0,0,14.3,0,32s14.3,32,32,32s32-14.3,32-32S49.7,0,32,0"/>
</svg>
