<?xml version="1.0" encoding="utf-8"?>
<!-- Generator: Adobe Illustrator 22.1.0, SVG Export Plug-In . SVG Version: 6.00 Build 0)  -->
<svg version="1.1" id="图层_1" xmlns="http://www.w3.org/2000/svg" xmlns:xlink="http://www.w3.org/1999/xlink" x="0px" y="0px"
	 viewBox="0 0 64 64" style="enable-background:new 0 0 64 64;" xml:space="preserve">
<style type="text/css">
	.st0{fill:url(#SVGID_1_);}
</style>
<linearGradient id="SVGID_1_" gradientUnits="userSpaceOnUse" x1="54.7858" y1="54.7467" x2="9.6693" y2="9.6302">
	<stop  offset="0" style="stop-color:#49A7FF"/>
	<stop  offset="0.6" style="stop-color:#5887FB"/>
	<stop  offset="1" style="stop-color:#7E67FF"/>
</linearGradient>
<path class="st0" d="M32.2,0.4c-17.7,0-32,14.3-32,31.8S14.6,64,32.2,64s32-14.3,32-31.8C64.3,14.6,49.9,0.4,32.2,0.4z M43.4,39.2
	c-0.3,0.2-0.7,0.2-1,0.2h-8.1v8.2c0,0.9-0.4,1.5-1.2,1.9c-0.8,0.3-1.5,0.2-2.2-0.3c-0.5-0.5-0.7-1-0.7-1.7v-8.1h-8.2
	c-0.9,0-1.6-0.5-1.9-1.4c-0.3-0.8,0-1.7,0.6-2.2c0.4-0.4,0.9-0.5,1.4-0.5h7.6c0.2,0,0.3,0,0.5,0v-4.1h-8.1c-1.4,0-2.3-1-2.2-2.3
	c0.1-1.1,1-1.8,2.2-1.8h7.2c-0.2-0.2-0.3-0.3-0.3-0.4l-8.4-8.4c-0.8-0.8-0.9-1.7-0.4-2.6c0.6-1.1,2-1.3,3-0.6
	c0.2,0.1,0.3,0.3,0.5,0.4l8.2,8.2c0.1,0.1,0.2,0.3,0.2,0.4c0.1,0,0.1,0,0.2,0c0.1-0.1,0.2-0.3,0.3-0.4c2.8-2.8,5.5-5.5,8.3-8.4
	c0.6-0.6,1.3-0.8,2.1-0.6c1.6,0.4,2.1,2.3,0.9,3.5c-0.8,0.9-1.7,1.7-2.5,2.5l-5.9,5.9c-0.1,0.1-0.3,0.2-0.4,0.3l0.1,0.2h7.1
	c1.1,0,1.9,0.6,2.2,1.7c0.2,1.1-0.5,2.2-1.6,2.4c-0.2,0-0.5,0-0.7,0h-7.9v4.1h8.3c1,0,1.7,0.7,2,1.6C44.7,37.9,44.3,38.8,43.4,39.2z
	"/>
</svg>
