<?xml version="1.0" standalone="no"?><!DOCTYPE svg PUBLIC "-//W3C//DTD SVG 1.1//EN" "http://www.w3.org/Graphics/SVG/1.1/DTD/svg11.dtd"><svg t="1535354923682" class="icon" style="" viewBox="0 0 1024 1024" version="1.1" xmlns="http://www.w3.org/2000/svg" p-id="3600" xmlns:xlink="http://www.w3.org/1999/xlink" width="64" height="64"><defs><style type="text/css"></style></defs><path d="M683.2128 326.4512c35.0208-38.0928 76.1856-95.232 76.1856-155.648a115.0976 115.0976 0 0 0-31.744-85.8112c-40.96-40.96-114.4832-40.96-197.0176-40.96H471.04C394.0352 43.6224 330.5472 40.96 289.1776 81.92a117.76 117.76 0 0 0-31.744 88.8832c0 85.8112 76.1856 161.9968 111.2064 190.6688a31.5392 31.5392 0 0 0 40.96-47.7184c-54.0672-47.7184-88.8832-102.4-88.8832-143.36 0-31.744 9.6256-40.96 12.6976-44.4416 22.528-18.6368 76.1856-18.6368 137.6256-18.6368h66.7648c66.7648 0 130.2528 0 152.576 22.3232a86.2208 86.2208 0 0 1 9.6256 40.96c0 38.0928-35.0208 92.16-92.16 139.8784a25.6 25.6 0 0 0-9.6256 28.672 49.3568 49.3568 0 0 0 19.0464 25.3952c116.736 45.056 240.64 165.2736 240.64 330.5472 0 155.648-95.232 212.7872-349.5936 212.7872S158.9248 850.7392 158.9248 695.0912a351.0272 351.0272 0 0 1 123.904-260.5056 31.5392 31.5392 0 0 0-40.96-47.7184 418.4064 418.4064 0 0 0-146.2272 307.2c0 276.48 279.552 276.48 413.0816 276.48S921.6 971.3664 921.6 695.0912c3.2768-152.576-95.232-295.5264-238.3872-368.64z" fill="#ffffff" p-id="3601"></path><path d="M638.7712 482.0992A31.5392 31.5392 0 0 0 593.92 437.6576l-79.4624 76.1856-79.4624-76.1856a31.5392 31.5392 0 0 0-44.4416 44.4416l88.8832 85.8112v19.0464h-63.488a31.744 31.744 0 0 0 0 63.488h63.488v31.744h-63.488a31.744 31.744 0 0 0 0 63.488h63.488v66.7648a31.744 31.744 0 0 0 63.488 0v-66.56h63.488a31.744 31.744 0 1 0 0-63.488h-63.488v-31.744h63.488a31.744 31.744 0 1 0 0-63.488h-63.488V573.44l95.232-92.16z" fill="#ffffff" p-id="3602"></path></svg>