<?xml version="1.0" encoding="utf-8"?>
<!-- Generator: Adobe Illustrator 22.1.0, SVG Export Plug-In . SVG Version: 6.00 Build 0)  -->
<svg version="1.1" id="图层_1" xmlns="http://www.w3.org/2000/svg" xmlns:xlink="http://www.w3.org/1999/xlink" x="0px" y="0px"
	 viewBox="0 0 64 64" style="enable-background:new 0 0 64 64;" xml:space="preserve">
<style type="text/css">
	.st0{fill:url(#SVGID_1_);}
</style>
<linearGradient id="SVGID_1_" gradientUnits="userSpaceOnUse" x1="0.4625" y1="32.0156" x2="63.4625" y2="32.0156">
	<stop  offset="0" style="stop-color:#D6D9DC"/>
	<stop  offset="1" style="stop-color:#D2D5D6"/>
</linearGradient>
<path class="st0" d="M60.9,19.8c-1.6-3.7-3.9-7.1-6.7-10l-0.4-0.4C47.9,3.8,40,0.7,31.9,0.7c-8.4,0-16.3,3.3-22.3,9.1V10
	c-5.9,6-9.1,13.9-9.1,22.1c0,3.4,0.6,6.6,1.6,9.7c1,2.9,2.3,5.6,4,8.1l0.3,0.3v12c0,0.6,0.6,1.1,1.1,1.1h24.4
	c4.3,0,8.3-0.9,12.3-2.4c3.7-1.6,7.1-3.9,10-6.7l0.4-0.4c5.7-5.9,8.9-13.6,8.9-21.9C63.3,27.8,62.5,23.8,60.9,19.8z M15.7,36.7
	c-3,0-5.4-2.4-5.4-5.4s2.4-5.4,5.4-5.4s5.4,2.4,5.4,5.4S18.7,36.7,15.7,36.7z M32.4,36.7c-3,0-5.4-2.4-5.4-5.4s2.4-5.4,5.4-5.4
	c3,0,5.4,2.4,5.4,5.4S35.3,36.7,32.4,36.7z M49.1,36.7c-3,0-5.4-2.4-5.4-5.4s2.4-5.4,5.4-5.4c3,0,5.4,2.4,5.4,5.4S52,36.7,49.1,36.7
	z"/>
</svg>
