<?xml version="1.0" encoding="utf-8"?>
<!-- Generator: Adobe Illustrator 22.1.0, SVG Export Plug-In . SVG Version: 6.00 Build 0)  -->
<svg version="1.1" id="图层_1" xmlns="http://www.w3.org/2000/svg" xmlns:xlink="http://www.w3.org/1999/xlink" x="0px" y="0px"
	 viewBox="0 0 64 64" style="enable-background:new 0 0 64 64;" xml:space="preserve">
<style type="text/css">
	.st0{fill:url(#SVGID_1_);}
</style>
<linearGradient id="SVGID_1_" gradientUnits="userSpaceOnUse" x1="0" y1="32.0001" x2="64" y2="32.0001">
	<stop  offset="0" style="stop-color:#D6D9DC"/>
	<stop  offset="1" style="stop-color:#D2D5D6"/>
</linearGradient>
<path class="st0" d="M23.4,51.5c0.6-0.4,1.1-0.8,1.7-1.2c0.4-0.3,0.9-0.7,1.3-1c0.1-0.1,0.2-0.2,0.3-0.2c0.5-0.4,0.9-0.8,1.4-1.1
	c0.1,0,0.1-0.1,0.2-0.1c1.1-0.9,2.2-1.8,3.2-2.7c0.1-0.1,0.3-0.2,0.4-0.4c0.4-0.3,0.8-0.7,1.2-1c0.5-0.5,1.1-1,1.6-1.5
	c0.2-0.2,0.4-0.3,0.5-0.5c0.4-0.4,0.8-0.7,1.2-1.1c0.1-0.1,0.3-0.3,0.4-0.4c0.5-0.5,1.1-1,1.6-1.6c0.5-0.5,1.1-1.1,1.6-1.6
	c0.1-0.1,0.3-0.3,0.4-0.4c0.4-0.4,0.8-0.8,1.1-1.2c0.2-0.2,0.3-0.3,0.5-0.5c0.4-0.4,0.7-0.8,1.1-1.1c0.1-0.2,0.3-0.3,0.4-0.5
	c0.4-0.4,0.8-0.9,1.2-1.3c0.1-0.1,0.2-0.2,0.2-0.3C56.4,18.9,62.7,7.2,59.4,3.8c-1.6-1.6-5.2-1-10,1.3C44.4,1.9,38.4,0,32,0
	C14.3,0,0,14.3,0,32c0,6.2,1.8,12.1,4.9,17c-2.4,4.8-3.1,8.4-1.5,10c2.6,2.6,10.4-0.6,19.8-7.5C23.3,51.6,23.3,51.5,23.4,51.5z
	 M21.7,29.6l7.7-7.7c0.9-0.9,2.4-0.9,3.4,0l7.7,7.7c0.9,0.9,0.9,2.4,0,3.4l-7.7,7.7c-0.9,0.9-2.4,0.9-3.4,0L21.7,33
	C20.8,32.1,20.8,30.5,21.7,29.6z M60.7,17.9c-3.5,6.7-10.4,15.5-19.2,24.2c-8.6,8.4-17.2,15-23.8,18.5C22,62.8,26.9,64,32,64
	c17.7,0,32-14.3,32-32C64,26.9,62.8,22.2,60.7,17.9z"/>
</svg>
